<svg width="182" height="136" viewBox="0 0 182 136" fill="none" xmlns="http://www.w3.org/2000/svg">
<g id="Isolation_Mode" clip-path="url(#clip0_23_5118)">
<path id="Vector" d="M91.0001 27.7514C104.573 27.7514 115.576 21.5391 115.576 13.8757C115.576 6.21237 104.573 0 91.0001 0C77.4274 0 66.4246 6.21237 66.4246 13.8757C66.4246 21.5391 77.4274 27.7514 91.0001 27.7514Z" fill="#D0DEE2"/>
<path id="Vector_2" d="M2.76306 60.6085V27.8986C2.76306 26.0785 4.24374 24.6021 6.06925 24.6021C6.98255 24.6021 7.80882 24.9712 8.40704 25.5677C9.00526 26.1652 9.37543 26.9891 9.37543 27.8986V52.1174L2.76306 60.6096V60.6085Z" fill="#BDCFD6"/>
<path id="Vector_3" d="M22.0537 97.0322C9.00966 95.947 0 85.906 0 72.7728C0 59.6397 9.00636 48.1124 22.046 46.858L22.0537 97.0311V97.0322Z" fill="#D0DEE2"/>
<path id="Vector_4" d="M172.624 52.1174V27.8986C172.624 26.988 172.994 26.1641 173.592 25.5677C174.191 24.9712 175.018 24.6021 175.93 24.6021C177.755 24.6021 179.236 26.0785 179.236 27.8986V60.6085L172.624 52.1163V52.1174Z" fill="#BDCFD6"/>
<path id="Vector_5" d="M159.954 46.858C172.994 48.1124 182 59.6418 182 72.7728C182 85.9049 172.99 95.947 159.946 97.0311L159.954 46.858Z" fill="#D0DEE2"/>
<path id="Vector_6" d="M91 136.001C132.373 136.001 165.912 107.319 165.912 71.9369C165.912 36.5552 132.373 7.87265 91 7.87265C49.6272 7.87265 16.088 36.5552 16.088 71.9369C16.088 107.319 49.6272 136.001 91 136.001Z" fill="#E6ECEF"/>
<path id="Vector_7" d="M150.12 71.9369C150.12 82.961 145.996 93.1613 138.992 101.469C135.458 105.662 130.225 108.053 124.732 108.053H57.2672C51.7742 108.053 46.5411 105.662 43.0069 101.469C36.0045 93.1613 31.8787 82.961 31.8787 71.9369C31.8787 60.9127 36.0034 50.7125 43.0069 42.4048C46.5411 38.212 51.7742 35.8207 57.2672 35.8207H124.732C130.225 35.8207 135.458 38.212 138.992 42.4048C145.994 50.7125 150.12 60.9127 150.12 71.9369Z" fill="#1D2F35"/>
<path id="Vector_8" d="M118.075 80.3148C109.599 83.708 100.237 77.8433 101.071 73.6142C101.932 69.2435 106.587 71.4063 113.391 68.6822C120.197 65.958 122.059 61.1885 125.712 63.7512C129.247 66.2315 126.551 76.9217 118.075 80.3148Z" fill="#EF3F3F"/>
<path id="Vector_9" d="M63.9247 80.3137C55.4483 76.9206 52.7524 66.2293 56.2878 63.7501C59.941 61.1874 61.8028 65.9569 68.6091 68.6811C68.9451 68.8162 69.2767 68.9381 69.6006 69.0501C71.013 69.5368 72.3218 69.8246 73.5128 70.0256C77.6034 70.7198 80.2948 70.3958 80.9294 73.6131C81.7634 77.8422 72.4011 83.7069 63.9247 80.3137Z" fill="#EF3F3F"/>
<path id="Vector_10" d="M90.9988 94.296C85.8803 94.296 82.5036 90.2492 82.3615 90.0768C81.5958 89.1431 81.7346 87.7678 82.6711 87.0044C83.6075 86.241 84.9868 86.3794 85.7525 87.3131C85.7668 87.3295 87.9856 89.9296 90.9988 89.9296C94.0119 89.9296 96.2307 87.3295 96.2528 87.3032C97.0173 86.3695 98.3934 86.2366 99.3298 87C100.266 87.7634 100.401 89.1431 99.635 90.0768C99.4939 90.2492 96.1161 94.296 90.9977 94.296H90.9988Z" fill="black"/>
<path id="Vector_11" d="M64.6286 55.3469C66.7703 57.0605 68.9704 58.7016 71.2311 60.2548C73.3948 61.741 75.6125 63.1481 77.8798 64.4729C79.1578 65.2187 80.4501 65.9393 81.7578 66.6324C82.1059 66.817 82.5124 66.8873 82.898 66.7807C83.2418 66.6863 83.6141 66.4215 83.7827 66.1019C83.9645 65.7592 84.0548 65.3439 83.9314 64.965C83.8157 64.6069 83.5932 64.2642 83.2506 64.0829C81.1585 62.9735 79.1038 61.7959 77.0899 60.5514C75.0826 59.3112 73.1161 58.0051 71.1947 56.6354C70.114 55.8654 69.0475 55.0745 67.9954 54.2649L68.2951 54.4956C67.7663 54.088 67.2418 53.6761 66.7207 53.2587C66.5863 53.1148 66.4277 53.0127 66.2448 52.9533C66.0685 52.8611 65.8779 52.8182 65.6741 52.8259C65.3106 52.8259 64.8776 52.9863 64.6275 53.2587C64.3774 53.5311 64.1758 53.909 64.1935 54.3022C64.21 54.668 64.3268 55.1063 64.6275 55.3458L64.6286 55.3469Z" fill="black"/>
<path id="Vector_12" d="M115.277 53.2587C114.756 53.6761 114.23 54.088 113.703 54.4956L114.002 54.2649C112.127 55.7083 110.205 57.0912 108.238 58.4083C106.278 59.7209 104.274 60.9699 102.232 62.1518C101.083 62.8164 99.9203 63.4601 98.747 64.0829C98.4264 64.2532 98.162 64.6211 98.0662 64.9649C97.9703 65.3088 98.0122 65.7888 98.2149 66.1019C98.4176 66.4149 98.7217 66.695 99.0996 66.7807C99.4973 66.8708 99.8774 66.8246 100.24 66.6324C102.567 65.3988 104.847 64.0807 107.076 62.6802C109.299 61.284 111.471 59.8066 113.585 58.2512C114.866 57.3098 116.126 56.3399 117.368 55.3469C117.512 55.2128 117.615 55.0547 117.674 54.8723C117.767 54.6966 117.81 54.5065 117.802 54.3033C117.802 53.9408 117.641 53.5091 117.368 53.2598C117.095 53.0104 116.716 52.8094 116.321 52.827L115.928 52.8797C115.677 52.95 115.46 53.0763 115.275 53.2598L115.277 53.2587Z" fill="black"/>
<path id="Vector_13" d="M75.3174 73.7746C75.3174 76.4295 73.1592 78.5803 70.4964 78.5803C67.8336 78.5803 65.6765 76.4295 65.6765 73.7746C65.6765 71.425 67.3676 69.4697 69.6019 69.0501C71.0142 69.5367 72.323 69.8245 73.514 70.0255C74.6146 70.9065 75.3185 72.2587 75.3185 73.7746H75.3174Z" fill="white"/>
<path id="Vector_14" d="M106.683 73.7746C106.683 76.4295 108.841 78.5803 111.504 78.5803C114.165 78.5803 116.324 76.4295 116.324 73.7746C116.324 71.425 114.633 69.4697 112.398 69.0501C110.986 69.5367 109.677 69.8245 108.486 70.0255C107.386 70.9065 106.682 72.2587 106.682 73.7746H106.683Z" fill="white"/>
</g>
<defs>
<clipPath id="clip0_23_5118">
<rect width="182" height="136" fill="white"/>
</clipPath>
</defs>
</svg>
