<svg width="39" height="29" viewBox="0 0 39 29" fill="none" xmlns="http://www.w3.org/2000/svg">
<g id="Two-Players-Icon">
<g id="Group">
<g id="Objects">
<g id="Group_2">
<g id="Group_3">
<path id="Vector" d="M12.5591 17.4049L11.8147 18.136C11.4596 18.4849 11.4582 19.052 11.8108 19.403L14.6651 22.2409C15.0181 22.5919 15.592 22.5933 15.9471 22.2447L16.6914 21.5136L12.5591 17.4049Z" fill="#6D6E70"/>
<path id="Vector_2" d="M16.5971 10.1095C16.5971 10.1095 12.3914 7.49796 7.46368 12.3392L5 14.7594L6.10938 15.8625C6.10938 15.8625 9.92381 12.4453 12.0589 14.5682L16.5971 10.1095Z" fill="#B95F5F"/>
<path id="Vector_3" d="M24.0966 17.566C24.0966 17.566 26.7142 21.7382 21.7864 26.5794L19.3228 29L18.2134 27.8969C18.2134 27.8969 21.6936 24.1472 19.5585 22.0244L24.0966 17.5657V17.566Z" fill="#B95F5F"/>
<g id="Group_4">
<path id="Vector_4" d="M34.3919 0.0384521C25.1656 1.13 16.6014 10.1136 16.6014 10.1136L16.5968 10.109L10.8751 15.7304L18.375 23.187L24.0966 17.5656L24.092 17.5611C24.092 17.5611 33.2329 9.15059 34.3919 0.0384521Z" fill="#D6D6D6"/>
<path id="Vector_5" d="M34.3919 0.0384521C25.1655 1.13 16.6013 10.1136 16.6013 10.1136L16.5967 10.109L10.9325 15.674L13.892 18.7304C13.9193 18.7574 18.2147 23.0283 18.2417 23.0552C18.2569 23.0703 20.7794 20.7604 20.7794 20.7604C20.8241 20.7254 23.9934 17.6098 24.0314 17.5681L24.0271 17.5635C24.1288 17.4511 30.1439 11.9022 33.0145 4.9697C33.6738 3.38386 34.1622 1.72167 34.3911 0.0384521H34.3919Z" fill="#D7D7D7"/>
<path id="Vector_6" d="M34.3919 0.0384362C25.1656 1.12999 16.6014 10.1136 16.6014 10.1136L16.5968 10.109L10.9904 15.6172L13.8035 18.6417C13.8577 18.6957 18.055 22.8685 18.1092 22.9225C18.1393 22.9526 20.6753 20.7986 20.6753 20.7986C20.7643 20.7285 23.8914 17.6535 23.9669 17.5702C23.9669 17.5702 23.9627 17.5656 23.963 17.5656C24.1665 17.3411 30.1228 11.8329 32.9905 4.96933C33.6579 3.3849 34.1477 1.72095 34.3916 0.0380859L34.3919 0.0384362Z" fill="#D8D8D8"/>
<path id="Vector_7" d="M34.3919 0.0384362C25.1656 1.12999 16.6014 10.1136 16.6014 10.1136L16.5968 10.109L11.0477 15.5608L13.7145 18.5538C13.796 18.6347 17.8947 22.7098 17.9759 22.7907C18.0212 22.8359 20.5703 20.8374 20.5703 20.8374C20.704 20.7324 23.7883 17.698 23.902 17.5726C23.902 17.5726 23.8981 17.5684 23.8981 17.5681C24.2033 17.2311 30.0859 11.7575 32.966 4.96933C33.6384 3.3849 34.1328 1.72025 34.3915 0.0380859L34.3919 0.0384362Z" fill="#D9D9D9"/>
<path id="Vector_8" d="M34.3919 0.0384362C25.1656 1.12999 16.6013 10.1136 16.6013 10.1136L16.5967 10.109L11.1055 15.5041L13.6259 18.4655C13.7343 18.5734 17.7348 22.5508 17.8433 22.6587C17.9039 22.7189 20.4661 20.876 20.4661 20.876C20.6444 20.7359 23.6858 17.7422 23.8375 17.5747C23.8375 17.5747 23.8339 17.5705 23.8339 17.5702C24.2408 17.1211 30.0603 11.6861 32.9419 4.96933C33.6213 3.38595 34.1182 1.71955 34.3915 0.0380859L34.3919 0.0384362Z" fill="#DADADA"/>
<path id="Vector_9" d="M34.3919 0.0384362C25.1656 1.12999 16.6014 10.1136 16.6014 10.1136L16.5968 10.109L11.163 15.4477L13.537 18.3773C13.6727 18.5121 17.5743 22.3914 17.7101 22.5263C17.7856 22.6012 20.3613 20.9145 20.3613 20.9145C20.5839 20.7394 23.5831 17.7863 23.7724 17.5772C23.7724 17.5772 23.7688 17.573 23.7692 17.5726C24.2778 17.0111 30.0342 11.615 32.9171 4.96933C33.6037 3.387 34.1031 1.7192 34.3912 0.0380859L34.3919 0.0384362Z" fill="#DBDBDB"/>
<path id="Vector_10" d="M34.3919 0.0384362C25.1656 1.12999 16.6014 10.1136 16.6014 10.1136L16.5968 10.109L11.2207 15.3909L13.4487 18.289C13.6114 18.4508 17.4148 22.2324 17.5779 22.3942C17.6686 22.4842 20.2574 20.953 20.2574 20.953C20.5246 20.7429 23.481 17.8301 23.7082 17.5793C23.7082 17.5793 23.705 17.5751 23.7053 17.5747C24.3157 16.9007 30.0097 11.5439 32.8937 4.96933C33.5873 3.38805 34.0892 1.7185 34.3923 0.0380859L34.3919 0.0384362Z" fill="#DCDCDC"/>
<path id="Vector_11" d="M34.3919 0.0384521C25.1656 1.13 16.6013 10.1136 16.6013 10.1136L16.5967 10.109L11.2781 15.3345L13.3597 18.2011C13.5497 18.3899 17.2546 22.0737 17.4445 22.2625C17.5502 22.3676 20.1524 20.9919 20.1524 20.9919C20.4643 20.7467 23.3778 17.8746 23.6429 17.5821C23.6429 17.5821 23.6397 17.5779 23.6401 17.5775C24.3521 16.7914 29.9837 11.4735 32.8685 4.9697C33.5696 3.38947 34.0739 1.71816 34.3915 0.0384521H34.3919Z" fill="#DDDDDD"/>
<path id="Vector_12" d="M34.3919 0.0382983C25.1656 1.12985 16.6014 10.1134 16.6014 10.1134L16.5968 10.1089L11.3359 15.2776L13.2712 18.1123C13.4881 18.3281 17.0948 21.9138 17.3117 22.1296C17.4326 22.2497 20.0483 21.03 20.0483 21.03C20.4045 20.7497 23.2758 17.9182 23.5785 17.5837C23.5785 17.5833 23.5756 17.5795 23.576 17.5791C24.3898 16.6806 29.9594 11.4018 32.8445 4.96884C33.5526 3.38967 34.0595 1.71696 34.3916 0.0375977L34.3919 0.0382983Z" fill="#DEDEDE"/>
<path id="Vector_13" d="M34.3919 0.0384521C25.1656 1.13 16.6014 10.1136 16.6014 10.1136L16.5968 10.109L11.3933 15.2214L13.1821 18.0245C13.4264 18.2673 16.9345 21.7553 17.1788 21.998C17.3149 22.1332 19.9437 21.069 19.9437 21.069C20.3446 20.7537 23.173 17.9629 23.5139 17.5866C23.5143 17.5863 23.5114 17.5824 23.5118 17.5821C24.4273 16.5714 29.9352 11.3319 32.8203 4.9697C33.5359 3.39157 34.0449 1.71711 34.3919 0.0384521Z" fill="#DFDFDF"/>
<path id="Vector_14" d="M34.3919 0.0384521C25.1656 1.13 16.6013 10.1136 16.6013 10.1136L16.5967 10.109L11.451 15.1646L13.0935 17.9362C13.3646 18.206 16.7747 21.5962 17.0458 21.866C17.1968 22.0162 19.8391 21.1079 19.8391 21.1079C20.2846 20.7576 23.0701 18.007 23.449 17.5891C23.4494 17.5887 23.4466 17.5849 23.4469 17.5845C24.4641 16.4615 29.9111 11.2615 32.7958 4.9697C33.5189 3.39262 34.03 1.71676 34.3919 0.0384521Z" fill="#E0E0E0"/>
<path id="Vector_15" d="M34.3919 0.0384362C25.1656 1.12999 16.6014 10.1136 16.6014 10.1136L16.5968 10.109L11.5085 15.1082L13.0046 17.8479C13.303 18.1447 16.6145 21.4368 16.913 21.7335C17.0792 21.8989 19.7346 21.1461 19.7346 21.1461C20.2248 20.7607 22.9678 18.0508 23.3842 17.5912C23.3846 17.5908 23.3821 17.587 23.3825 17.5866C24.5014 16.3511 29.8871 11.1907 32.7715 4.96933C33.502 3.39331 34.0152 1.7157 34.3919 0.0380859V0.0384362Z" fill="#E1E1E1"/>
<path id="Vector_16" d="M34.3919 0.0384362C25.1656 1.12999 16.6014 10.1136 16.6014 10.1136L16.5968 10.109L11.5663 15.0515L12.916 17.7597C13.2413 18.0833 16.4547 21.2778 16.78 21.6015C16.9615 21.7819 19.63 21.1846 19.63 21.1846C20.1645 20.7642 22.865 18.0949 23.3194 17.5933C23.3197 17.5926 23.3172 17.5891 23.3179 17.5887C24.5386 16.2411 29.8636 11.12 32.747 4.96933C33.4853 3.39436 34.0003 1.715 34.3916 0.0380859L34.3919 0.0384362Z" fill="#E2E2E2"/>
<path id="Vector_17" d="M34.3919 0.0384521C25.1656 1.13 16.6013 10.1136 16.6013 10.1136L16.5967 10.109L11.6237 14.9951L12.8273 17.6718C13.18 18.0224 16.2944 21.1191 16.6471 21.4698C16.8434 21.6652 19.5254 21.2238 19.5254 21.2238C20.1046 20.7685 22.7625 18.1398 23.2544 17.5961C23.2552 17.5954 23.2527 17.5922 23.2534 17.5915C24.5758 16.1315 29.8406 11.0503 32.7228 4.9697C33.4686 3.39613 33.9857 1.71501 34.3919 0.0388025V0.0384521Z" fill="#E3E3E3"/>
<path id="Vector_18" d="M34.392 0.0384362C25.1657 1.12999 16.6014 10.1136 16.6014 10.1136L16.5968 10.109L11.6815 14.9383L12.7388 17.5831C13.1184 17.9607 16.1346 20.9593 16.5146 21.337C16.7262 21.5472 19.4213 21.2617 19.4213 21.2617C20.0451 20.7709 22.6601 18.1828 23.19 17.5978C23.1907 17.5971 23.1886 17.594 23.189 17.5933C24.6127 16.0211 29.8176 10.9799 32.6985 4.96898C33.452 3.39646 33.9709 1.71359 34.392 0.0380859V0.0384362Z" fill="#E4E4E4"/>
<path id="Vector_19" d="M34.3919 0.0384521C25.1656 1.13 16.6014 10.1136 16.6014 10.1136L16.5968 10.109L11.7389 14.8819L12.6498 17.4952C13.0567 17.8998 15.9744 20.8007 16.3813 21.2053C16.6081 21.4305 19.3164 21.3006 19.3164 21.3006C19.9845 20.7748 22.557 18.2273 23.1248 17.6003C23.1255 17.5996 23.1234 17.5964 23.1241 17.5957C24.6495 15.9111 29.7949 10.9098 32.6736 4.96935C33.4349 3.39823 33.9556 1.71326 34.3916 0.0384521H34.3919Z" fill="#E5E5E5"/>
<path id="Vector_20" d="M34.3919 0.0384521C25.1656 1.13 16.6014 10.1136 16.6014 10.1136L16.5967 10.109L11.7966 14.8252L12.5611 17.4069C12.9953 17.8385 15.8145 20.6416 16.2487 21.0732C16.4904 21.3135 19.2121 21.3395 19.2121 21.3395C19.9249 20.7786 22.4549 18.2718 23.0606 17.6031C23.0613 17.6024 23.0595 17.5992 23.0602 17.5985C24.6874 15.8015 29.7732 10.8405 32.6498 4.9697C33.4189 3.39963 33.9414 1.71326 34.3919 0.0388025V0.0384521Z" fill="#E6E6E6"/>
<path id="Vector_21" d="M34.392 0.0384521C25.1656 1.13 16.6014 10.1136 16.6014 10.1136L16.5968 10.109L11.8541 14.7688L12.4723 17.3186C12.9334 17.7772 15.6544 20.4823 16.1155 20.9408C16.3725 21.1962 19.1073 21.3776 19.1073 21.3776C19.8647 20.7818 22.3518 18.3156 22.9954 17.6048C22.9962 17.6041 22.9944 17.601 22.9954 17.6003C24.7244 15.6911 29.751 10.7704 32.6254 4.96935C33.4027 3.40068 33.9266 1.71221 34.392 0.0384521Z" fill="#E7E7E7"/>
<path id="Vector_22" d="M34.3919 0.0384521C25.1656 1.13 16.6014 10.1136 16.6014 10.1136L16.5968 10.109L11.9119 14.712L12.3836 17.2304C12.872 17.7159 15.4945 20.3232 15.9826 20.8087C16.2544 21.0792 19.0027 21.4162 19.0027 21.4162C19.8044 20.7853 22.249 18.3598 22.9305 17.6073C22.9313 17.6066 22.9298 17.6034 22.9305 17.6027C24.7612 15.5811 29.729 10.701 32.6006 4.96935C33.3857 3.40208 33.9113 1.71151 34.3916 0.0384521H34.3919Z" fill="#E7E7E7"/>
<path id="Vector_23" d="M34.3919 0.0384521C25.1656 1.13 16.6014 10.1136 16.6014 10.1136L16.5967 10.109L11.9692 14.6553L12.295 17.1421C12.8103 17.6546 15.3346 20.1642 15.8499 20.6767C16.137 20.9622 18.8984 21.4551 18.8984 21.4551C19.7448 20.7891 22.1468 18.4039 22.866 17.6098C22.8667 17.6091 22.8656 17.6059 22.866 17.6052C24.7984 15.4715 29.7077 10.6317 32.5761 4.96935C33.3693 3.40348 33.8964 1.71116 34.3915 0.0384521H34.3919Z" fill="#E8E8E8"/>
<path id="Vector_24" d="M34.3918 0.0384521C25.1655 1.13 16.6013 10.1136 16.6013 10.1136L16.5967 10.109L12.027 14.5989L12.2063 17.0538C12.749 17.5933 15.1744 20.0048 15.717 20.5443C16.0193 20.8448 18.7939 21.4932 18.7939 21.4932C19.6849 20.7923 22.044 18.4477 22.8011 17.6119C22.8018 17.6108 22.8011 17.608 22.8018 17.6073C24.8359 15.3611 29.6867 10.5623 32.552 4.96935C33.3533 3.40488 33.8822 1.71046 34.3915 0.0384521H34.3918Z" fill="#E9E9E9"/>
<path id="Vector_25" d="M34.3919 0.0384362C25.1656 1.12999 16.6014 10.1136 16.6014 10.1136L16.5968 10.109L12.0845 14.5421L12.1174 16.9655C12.687 17.532 15.0142 19.8457 15.5842 20.4122C15.9014 20.7278 18.6894 21.5317 18.6894 21.5317C19.6247 20.7958 21.9413 18.4918 22.7363 17.6139C22.737 17.6129 22.7363 17.6101 22.737 17.6094C24.8728 15.2508 29.6659 10.4929 32.5276 4.96898C33.3375 3.40592 33.8673 1.70974 34.3916 0.0380859L34.3919 0.0384362Z" fill="#EAEAEA"/>
<path id="Vector_26" d="M34.3919 0.0384521C25.1656 1.13 16.6014 10.1136 16.6014 10.1136L16.5968 10.109L12.1422 14.4857L12.0288 16.8776C12.6257 17.471 14.8544 19.6871 15.4512 20.2805C15.7837 20.6112 18.5848 21.571 18.5848 21.571C19.5648 20.8 21.8389 18.5367 22.6718 17.6168C22.6729 17.6157 22.6718 17.6133 22.6729 17.6122C24.9104 15.1415 29.6457 10.4243 32.5035 4.96935C33.3215 3.40769 33.8528 1.70941 34.3919 0.0384521Z" fill="#EBEBEB"/>
<path id="Vector_27" d="M34.3919 0.0384362C25.1656 1.12999 16.6014 10.1136 16.6014 10.1136L16.5967 10.109L12.1996 14.429L11.9398 16.789C12.5636 17.4094 14.6941 19.5273 15.3179 20.1477C15.6656 20.4934 18.4799 21.6088 18.4799 21.6088C19.5045 20.8028 21.7357 18.5797 22.6065 17.6185C22.6076 17.6174 22.6069 17.615 22.608 17.6139C24.9472 15.0308 29.6251 10.3549 32.4786 4.96898C33.3052 3.40907 33.8375 1.70834 34.3912 0.0380859L34.3919 0.0384362Z" fill="#ECECEC"/>
<path id="Vector_28" d="M34.3919 0.0384521C25.1656 1.13 16.6013 10.1136 16.6013 10.1136L16.5967 10.109L12.2574 14.3726L11.8512 16.7011C12.5023 17.3484 14.5343 19.3686 15.1854 20.016C15.548 20.3765 18.376 21.6481 18.376 21.6481C19.445 20.807 21.6336 18.6246 22.5424 17.6213C22.5434 17.6203 22.5431 17.6178 22.5438 17.6168C24.9848 14.9215 29.6056 10.2866 32.4549 4.96935C33.2899 3.41084 33.8233 1.70836 34.3919 0.0384521Z" fill="#EDEDED"/>
<path id="Vector_29" d="M34.392 0.0384521C25.1657 1.13 16.6014 10.1136 16.6014 10.1136L16.5968 10.109L12.3149 14.3158L11.7623 16.6128C12.4404 17.2871 14.3742 19.2096 15.0522 19.8839C15.43 20.2595 18.2712 21.6866 18.2712 21.6866C19.3848 20.8105 21.5309 18.6687 22.4773 17.6238C22.4783 17.6227 22.478 17.6203 22.479 17.6192C25.0217 14.8115 29.5855 10.2183 32.4302 4.9697C33.2737 3.41294 33.8082 1.70801 34.3916 0.0388025L34.392 0.0384521Z" fill="#EEEEEE"/>
<path id="Vector_30" d="M34.392 0.0384362C25.1656 1.12999 16.6014 10.1136 16.6014 10.1136L16.5968 10.109L12.3727 14.2594L11.6741 16.5245C12.3794 17.2258 14.2147 19.0502 14.92 19.7515C15.3131 20.1421 18.1673 21.7248 18.1673 21.7248C19.3256 20.8136 21.4288 18.7125 22.4131 17.6255C22.4142 17.6244 22.4142 17.622 22.4152 17.6209C25.0597 14.7008 29.5667 10.1493 32.4064 4.96898C33.2588 3.41398 33.794 1.70659 34.3923 0.0380859L34.392 0.0384362Z" fill="#EFEFEF"/>
<path id="Vector_31" d="M34.3919 0.0384362C25.1656 1.12999 16.6014 10.1136 16.6014 10.1136L16.5968 10.109L12.4301 14.2027L11.5851 16.4362C12.3173 17.1645 14.0544 18.8912 14.7867 19.6194C15.1947 20.0251 18.0624 21.7637 18.0624 21.7637C19.265 20.8175 21.3257 18.757 22.3479 17.6283C22.3489 17.6269 22.3489 17.6248 22.3503 17.6234C25.0965 14.5912 29.5475 10.0813 32.3816 4.96898C33.2428 3.41573 33.7788 1.70624 34.3916 0.0380859L34.3919 0.0384362Z" fill="#F0F0F0"/>
<path id="Vector_32" d="M34.3919 0.0384521C25.1656 1.13 16.6014 10.1136 16.6014 10.1136L16.5968 10.109L12.4878 14.1463L11.4965 16.3483C12.256 17.1036 13.8942 18.7325 14.6538 19.4877C15.077 19.9085 17.9578 21.8026 17.9578 21.8026C19.2051 20.8213 21.2232 18.8011 22.2833 17.6308C22.2844 17.6294 22.2848 17.6273 22.2858 17.6259C25.1337 14.4812 29.5284 10.0134 32.3575 4.96935C33.2276 3.41784 33.7642 1.7059 34.3919 0.0384521Z" fill="#F1F1F1"/>
<path id="Vector_33" d="M34.3919 0.0382983C25.1656 1.12985 16.6014 10.1134 16.6014 10.1134L16.5968 10.1089L12.5452 14.0894L11.4075 16.2595C12.1943 17.0418 13.734 18.5726 14.5208 19.3548C14.9589 19.7906 17.8532 21.8402 17.8532 21.8402C19.1451 20.824 21.1204 18.8444 22.2185 17.6324C22.2195 17.631 22.2202 17.6289 22.2213 17.6275C25.1709 14.3707 29.5099 9.94492 32.333 4.96849C33.212 3.41909 33.7493 1.70435 34.3919 0.0375977V0.0382983Z" fill="#F2F2F2"/>
<path id="Vector_34" d="M34.3919 0.0384362C25.1656 1.12999 16.6013 10.1136 16.6013 10.1136L16.5967 10.109L12.6026 14.0331L11.3185 16.1717C12.1323 16.9809 13.5738 18.414 14.3875 19.2232C14.8409 19.6741 17.7483 21.8796 17.7483 21.8796C19.0849 20.8283 21.0172 18.8894 22.1532 17.6353C22.1546 17.6339 22.155 17.6318 22.1564 17.6304C25.2077 14.2612 29.4911 9.87815 32.3081 4.96898C33.1963 3.42133 33.734 1.70449 34.3915 0.0380859L34.3919 0.0384362Z" fill="#F3F3F3"/>
<path id="Vector_35" d="M34.3918 0.0384521C25.1655 1.13 16.6013 10.1136 16.6013 10.1136L16.5967 10.109L12.6604 13.9764L11.2299 16.0835C12.0709 16.9197 13.4139 18.255 14.255 19.0912C14.7235 19.5571 17.6441 21.9182 17.6441 21.9182C19.025 20.8319 20.9152 18.9336 22.0887 17.6378C22.0901 17.6364 22.0908 17.6343 22.0919 17.6329C25.2449 14.1512 29.473 9.81056 32.284 4.96935C33.1814 3.4238 33.7195 1.70415 34.3915 0.0384521H34.3918Z" fill="#F4F4F4"/>
<path id="Vector_36" d="M34.392 0.0382983C25.1656 1.12985 16.6014 10.1134 16.6014 10.1134L16.5968 10.1089L12.7179 13.9198L11.1414 15.995C12.0094 16.8582 13.2541 18.0955 14.1222 18.9586C14.6056 19.4396 17.5396 21.9562 17.5396 21.9562C18.9652 20.8349 20.8125 18.9768 22.0239 17.6394C22.0254 17.638 22.0261 17.6362 22.0275 17.6345C25.2823 14.0407 29.455 9.7428 32.2597 4.96849C33.1663 3.42505 33.7047 1.70295 34.3916 0.0375977L34.392 0.0382983Z" fill="#F5F5F5"/>
<path id="Vector_37" d="M34.3919 0.0382983C25.1656 1.12985 16.6014 10.1134 16.6014 10.1134L16.5968 10.1089L12.7756 13.8631L11.0527 15.9068C11.948 16.7969 13.0943 17.9364 13.9892 18.8266C14.4879 19.3222 17.435 21.9951 17.435 21.9951C18.9052 20.8387 20.7097 19.0213 21.9591 17.6418C21.9605 17.6404 21.9615 17.6387 21.963 17.6369C25.3195 13.9307 29.4465 9.68079 32.2352 4.96849C33.1542 3.4289 33.6898 1.70225 34.3916 0.0375977L34.3919 0.0382983Z" fill="#F6F6F6"/>
<path id="Vector_38" d="M34.3919 0.0384521C25.1656 1.13 16.6014 10.1136 16.6014 10.1136L16.5968 10.109L12.833 13.8068L10.9637 15.819C11.886 16.7361 12.9341 17.7779 13.8563 18.695C14.3702 19.2057 17.3305 22.0341 17.3305 22.0341C18.845 20.8427 20.6072 19.066 21.8945 17.6448C21.8959 17.6434 21.8974 17.6416 21.8988 17.6399C25.357 13.8216 29.4252 9.61229 32.2111 4.96935C33.1383 3.43116 33.6756 1.7024 34.3919 0.0384521Z" fill="#F7F7F7"/>
<path id="Vector_39" d="M21.83 17.6469C25.391 13.7147 29.4022 9.54466 32.187 4.96898C33.1223 3.43219 33.6611 1.70168 34.388 0.0678619C34.3894 0.0580533 34.3908 0.0478945 34.3919 0.0380859C25.1656 1.12964 16.6014 10.1132 16.6014 10.1132L16.5968 10.1087L10.8751 15.73C11.8247 16.6741 12.7738 17.6178 13.7234 18.5619C14.2522 19.0877 17.2259 22.0719 17.2259 22.0719C18.7851 20.8455 20.5044 19.1094 21.8297 17.6462L21.83 17.6469Z" fill="white"/>
</g>
<path id="Vector_40" d="M25.2532 3.92834C25.2532 3.92834 21.1293 6.38679 15.5909 12.0992C15.5909 12.0992 20.0437 8.49177 26.454 5.30364L25.2532 3.92834Z" fill="white"/>
<g id="Group_5" style="mix-blend-mode:multiply">
<path id="Vector_41" d="M26.5888 13.7467C28.5429 12.2116 28.9102 9.45413 27.4092 7.58779C25.9083 5.72145 23.1074 5.45296 21.1533 6.98809C19.1992 8.52323 18.8319 11.2807 20.3329 13.147C21.8339 15.0133 24.6347 15.2818 26.5888 13.7467Z" fill="#DBDBDB"/>
<path id="Vector_42" d="M26.5864 13.7437C28.5386 12.21 28.9055 9.45505 27.4059 7.59037C25.9063 5.7257 23.1079 5.45738 21.1557 6.99107C19.2035 8.52476 18.8365 11.2797 20.3362 13.1444C21.8358 15.009 24.6341 15.2773 26.5864 13.7437Z" fill="#DCDCDC"/>
<path id="Vector_43" d="M26.5841 13.7406C28.5345 12.2084 28.901 9.45596 27.4027 7.59295C25.9044 5.72994 23.1086 5.46181 21.1582 6.99406C19.2078 8.5263 18.8413 11.2787 20.3396 13.1417C21.8379 15.0047 24.6337 15.2729 26.5841 13.7406Z" fill="#DDDDDD"/>
<path id="Vector_44" d="M26.5816 13.7377C28.5304 12.2068 28.8966 9.45681 27.3996 7.59547C25.9027 5.73412 23.1094 5.46626 21.1607 6.99719C19.212 8.52811 18.8457 11.2781 20.3427 13.1394C21.8397 15.0008 24.6329 15.2686 26.5816 13.7377Z" fill="#DEDEDE"/>
<path id="Vector_45" d="M26.579 13.7343C28.5259 12.2049 28.8918 9.45754 27.3963 7.59802C25.9008 5.73849 23.1102 5.47094 21.1633 7.00041C19.2164 8.52989 18.8505 11.2772 20.346 13.1367C21.8415 14.9963 24.6321 15.2638 26.579 13.7343Z" fill="#DFDFDF"/>
<path id="Vector_46" d="M26.5766 13.7313C28.5216 12.2033 28.8871 9.45846 27.393 7.6006C25.8988 5.74274 23.1108 5.47536 21.1657 7.00339C19.2207 8.53143 18.8552 11.2762 20.3493 13.1341C21.8435 14.992 24.6315 15.2593 26.5766 13.7313Z" fill="#E0E0E0"/>
<path id="Vector_47" d="M26.5742 13.728C28.5175 12.2013 28.8827 9.45893 27.3899 7.60274C25.8971 5.74655 23.1115 5.47945 21.1682 7.00616C19.2248 8.53287 18.8596 11.2752 20.3524 13.1314C21.8452 14.9876 24.6308 15.2547 26.5742 13.728Z" fill="#E1E1E1"/>
<path id="Vector_48" d="M26.5715 13.7247C28.513 12.1994 28.878 9.45967 27.3866 7.60529C25.8952 5.75092 23.1123 5.48412 21.1708 7.00938C19.2293 8.53465 18.8644 11.2744 20.3557 13.1288C21.8471 14.9831 24.63 15.2499 26.5715 13.7247Z" fill="#E2E2E2"/>
<path id="Vector_49" d="M26.5691 13.7216C28.5087 12.1978 28.8733 9.46058 27.3832 7.60787C25.8932 5.75516 23.1129 5.48855 21.1732 7.01237C19.2336 8.53619 18.869 11.2734 20.3591 13.1261C21.8491 14.9788 24.6294 15.2454 26.5691 13.7216Z" fill="#E3E3E3"/>
<path id="Vector_50" d="M26.5667 13.719C28.5047 12.1965 28.8689 9.46167 27.3802 7.61063C25.8915 5.75959 23.1137 5.49325 21.1757 7.01574C19.2377 8.53823 18.8734 11.273 20.3621 13.1241C21.8508 14.9751 24.6287 15.2415 26.5667 13.719Z" fill="#E4E4E4"/>
<path id="Vector_51" d="M26.5642 13.7155C28.5004 12.1945 28.8642 9.46222 27.3769 7.61284C25.8895 5.76347 23.1142 5.49731 21.1781 7.01836C19.2419 8.53941 18.8781 11.2717 20.3654 13.1211C21.8528 14.9704 24.6281 15.2366 26.5642 13.7155Z" fill="#E5E5E5"/>
<path id="Vector_52" d="M26.5616 13.7128C28.4959 12.1932 28.8594 9.46357 27.3735 7.61601C25.8877 5.76845 23.115 5.50259 21.1807 7.02219C19.2464 8.5418 18.8829 11.2714 20.3688 13.119C21.8546 14.9665 24.6273 15.2324 26.5616 13.7128Z" fill="#E6E6E6"/>
<path id="Vector_53" d="M26.559 13.7097C28.4917 12.1914 28.8549 9.46417 27.3704 7.61827C25.8858 5.77238 23.1157 5.5068 21.1831 7.02508C19.2504 8.54336 18.8872 11.2706 20.3717 13.1165C21.8562 14.9624 24.6264 15.2279 26.559 13.7097Z" fill="#E7E7E7"/>
<path id="Vector_54" d="M26.5567 13.7066C28.4875 12.1898 28.8504 9.46508 27.3672 7.62085C25.884 5.77663 23.1164 5.51122 21.1856 7.02806C19.2548 8.5449 18.8919 11.2696 20.3751 13.1138C21.8583 14.958 24.6259 15.2234 26.5567 13.7066Z" fill="#E8E8E8"/>
<path id="Vector_55" d="M26.5541 13.703C28.483 12.1876 28.8456 9.46557 27.3638 7.62316C25.8821 5.78075 23.1172 5.51565 21.1882 7.03104C19.2593 8.54643 18.8967 11.2685 20.3785 13.1109C21.8602 14.9533 24.6251 15.2184 26.5541 13.703Z" fill="#E9E9E9"/>
<path id="Vector_56" d="M26.5517 13.7003C28.4789 12.1863 28.8412 9.46666 27.3608 7.62592C25.8804 5.78517 23.1179 5.52035 21.1907 7.03442C19.2634 8.54848 18.9011 11.2681 20.3815 13.1088C21.8619 14.9496 24.6244 15.2144 26.5517 13.7003Z" fill="#EAEAEA"/>
<path id="Vector_57" d="M26.5492 13.6973C28.4746 12.1847 28.8365 9.46758 27.3574 7.6285C25.8784 5.78942 23.1185 5.52477 21.1931 7.0374C19.2677 8.55002 18.9058 11.2671 20.3849 13.1062C21.8639 14.9453 24.6238 15.2099 26.5492 13.6973Z" fill="#EBEBEB"/>
<path id="Vector_58" d="M26.5468 13.6944C28.4704 12.1832 28.8318 9.46861 27.3541 7.6312C25.8764 5.79379 23.1191 5.52932 21.1955 7.0405C19.2719 8.55168 18.9105 11.2663 20.3882 13.1037C21.8659 14.9411 24.6232 15.2055 26.5468 13.6944Z" fill="#ECECEC"/>
<path id="Vector_59" d="M26.5442 13.691C28.4661 12.1812 28.8273 9.46916 27.3511 7.63356C25.8748 5.79797 23.1201 5.5339 21.1982 7.04375C19.2763 8.55361 18.915 11.2656 20.3913 13.1012C21.8675 14.9368 24.6223 15.2009 26.5442 13.691Z" fill="#EDEDED"/>
<path id="Vector_60" d="M26.5417 13.6881C28.4618 12.1797 28.8227 9.47019 27.3477 7.63626C25.8728 5.80233 23.1206 5.53845 21.2006 7.04686C19.2805 8.55527 18.9197 11.2648 20.3946 13.0987C21.8695 14.9326 24.6217 15.1965 26.5417 13.6881Z" fill="#EDEDED"/>
<path id="Vector_61" d="M26.5393 13.6851C28.4575 12.1781 28.818 9.47111 27.3444 7.63884C25.8708 5.80658 23.1212 5.54288 21.203 7.04984C19.2848 8.55681 18.9243 11.2638 20.3979 13.096C21.8715 14.9283 24.6211 15.192 26.5393 13.6851Z" fill="#EEEEEE"/>
<path id="Vector_62" d="M26.5369 13.6819C28.4534 12.1763 28.8136 9.47171 27.3414 7.64111C25.8691 5.81051 23.122 5.54708 21.2054 7.05273C19.2889 8.55837 18.9287 11.2629 20.4009 13.0935C21.8732 14.9241 24.6203 15.1875 26.5369 13.6819Z" fill="#EFEFEF"/>
<path id="Vector_63" d="M26.5342 13.6788C28.4489 12.1746 28.8088 9.47269 27.338 7.64391C25.8673 5.81513 23.1228 5.552 21.2081 7.0562C19.2934 8.56039 18.9335 11.2623 20.4043 13.0911C21.8751 14.9199 24.6195 15.183 26.5342 13.6788Z" fill="#F0F0F0"/>
<path id="Vector_64" d="M26.5318 13.6757C28.4446 12.173 28.8041 9.4736 27.3347 7.64649C25.8652 5.81937 23.1234 5.55643 21.2105 7.05918C19.2976 8.56193 18.9382 11.2613 20.4076 13.0884C21.877 14.9155 24.6189 15.1785 26.5318 13.6757Z" fill="#F1F1F1"/>
<path id="Vector_65" d="M26.5293 13.6727C28.4404 12.1714 28.7994 9.47452 27.3313 7.64907C25.8632 5.82362 23.1239 5.56085 21.2129 7.06216C19.3019 8.56347 18.9428 11.2603 20.4109 13.0858C21.879 14.9112 24.6183 15.174 26.5293 13.6727Z" fill="#F2F2F2"/>
<path id="Vector_66" d="M26.5267 13.6695C28.4361 12.1695 28.795 9.47518 27.3283 7.65155C25.8617 5.82792 23.1249 5.56555 21.2156 7.06553C19.3062 8.56552 18.9474 11.2598 20.414 13.0835C21.8806 14.9071 24.6174 15.1695 26.5267 13.6695Z" fill="#F3F3F3"/>
<path id="Vector_67" d="M26.5243 13.6664C28.4318 12.1679 28.7903 9.4761 27.325 7.65413C25.8597 5.83217 23.1255 5.56998 21.218 7.06852C19.3105 8.56706 18.952 11.2589 20.4173 13.0808C21.8826 14.9028 24.6168 15.165 26.5243 13.6664Z" fill="#F4F4F4"/>
<path id="Vector_68" d="M26.5218 13.6634C28.4275 12.1663 28.7856 9.47701 27.3216 7.65671C25.8577 5.83641 23.1261 5.5744 21.2204 7.0715C19.3147 8.56859 18.9567 11.2579 20.4206 13.0782C21.8846 14.8985 24.6162 15.1605 26.5218 13.6634Z" fill="#F5F5F5"/>
<path id="Vector_69" d="M26.5194 13.6604C28.4234 12.1646 28.7812 9.47773 27.3186 7.6591C25.856 5.84047 23.1268 5.57874 21.2228 7.07451C19.3189 8.57028 18.9611 11.2571 20.4237 13.0758C21.8863 14.8944 24.6155 15.1561 26.5194 13.6604Z" fill="#F6F6F6"/>
<path id="Vector_70" d="M26.5168 13.6571C28.4189 12.1628 28.7764 9.47859 27.3153 7.66177C25.8541 5.84496 23.1276 5.58353 21.2255 7.07785C19.3234 8.57218 18.9659 11.2564 20.427 13.0732C21.8882 14.89 24.6147 15.1514 26.5168 13.6571Z" fill="#F7F7F7"/>
<path id="Vector_71" d="M26.5143 13.6541C28.4146 12.1612 28.7717 9.4795 27.3119 7.66436C25.8521 5.84921 23.1282 5.58796 21.2279 7.08084C19.3276 8.57372 18.9705 11.2554 20.4303 13.0706C21.8901 14.8857 24.614 15.147 26.5143 13.6541Z" fill="white"/>
<path id="Vector_72" d="M26.5119 13.651C28.4105 12.1595 28.7674 9.48023 27.3089 7.66674C25.8504 5.85326 23.129 5.59229 21.2303 7.08384C19.3317 8.5754 18.9749 11.2547 20.4334 13.0681C21.8919 14.8816 24.6133 15.1426 26.5119 13.651Z" fill="#F9F9F9"/>
<path id="Vector_73" d="M26.5093 13.6477C28.4061 12.1576 28.7626 9.48096 27.3056 7.6693C25.8485 5.85763 23.1298 5.59696 21.233 7.08707C19.3362 8.57718 18.9797 11.2538 20.4367 13.0655C21.8937 14.8771 24.6125 15.1378 26.5093 13.6477Z" fill="#FAFAFA"/>
<path id="Vector_74" d="M26.5069 13.6444C28.4018 12.1557 28.7579 9.48163 27.3022 7.67163C25.8465 5.86163 23.1303 5.60114 21.2354 7.08981C19.3405 8.57848 18.9844 11.2526 20.44 13.0626C21.8957 14.8726 24.6119 15.1331 26.5069 13.6444Z" fill="#FBFBFB"/>
<path id="Vector_75" d="M26.5044 13.6417C28.3977 12.1544 28.7535 9.48272 27.2992 7.67439C25.8448 5.86605 23.1311 5.60584 21.2378 7.09318C19.3446 8.58053 18.9888 11.2522 20.4431 13.0605C21.8974 14.8689 24.6112 15.1291 26.5044 13.6417Z" fill="#FCFCFC"/>
<path id="Vector_76" d="M26.502 13.6387C28.3934 12.1528 28.7488 9.48364 27.2958 7.67697C25.8428 5.8703 23.1317 5.61027 21.2403 7.09616C19.3488 8.58206 18.9934 11.2512 20.4464 13.0579C21.8994 14.8646 24.6106 15.1246 26.502 13.6387Z" fill="#FDFDFD"/>
<path id="Vector_77" d="M26.4994 13.6353C28.3889 12.1509 28.744 9.48437 27.2925 7.67952C25.841 5.87467 23.1325 5.61494 21.2429 7.09939C19.3533 8.58384 18.9982 11.2504 20.4498 13.0552C21.9013 14.8601 24.6098 15.1198 26.4994 13.6353Z" fill="#FEFEFE"/>
<path id="Vector_78" d="M26.4969 13.6324C28.3848 12.1493 28.7397 9.48522 27.2895 7.68203C25.8393 5.87885 23.1332 5.61939 21.2453 7.10252C19.3575 8.58565 19.0026 11.2497 20.4528 13.0529C21.903 14.8561 24.6091 15.1156 26.4969 13.6324Z" fill="white"/>
</g>
<g id="Group_6">
<path id="Vector_79" d="M23.8885 13.8775C25.8552 13.8775 27.4495 12.3018 27.4495 10.358C27.4495 8.41424 25.8552 6.8385 23.8885 6.8385C21.9218 6.8385 20.3275 8.41424 20.3275 10.358C20.3275 12.3018 21.9218 13.8775 23.8885 13.8775Z" fill="#525252"/>
<path id="Vector_80" d="M26.4024 12.8425C27.7908 11.4702 27.7908 9.24535 26.4024 7.87308C25.0139 6.50081 22.7628 6.50081 21.3744 7.87308C19.9859 9.24535 19.9859 11.4702 21.3744 12.8425C22.7628 14.2148 25.0139 14.2148 26.4024 12.8425Z" fill="#535353"/>
<path id="Vector_81" d="M23.8885 13.866C25.8488 13.866 27.4379 12.2954 27.4379 10.3581C27.4379 8.42066 25.8488 6.8501 23.8885 6.8501C21.9283 6.8501 20.3392 8.42066 20.3392 10.3581C20.3392 12.2954 21.9283 13.866 23.8885 13.866Z" fill="#545454"/>
<path id="Vector_82" d="M23.8886 13.8604C25.8457 13.8604 27.4323 12.2924 27.4323 10.3581C27.4323 8.42377 25.8457 6.85571 23.8886 6.85571C21.9315 6.85571 20.345 8.42377 20.345 10.3581C20.345 12.2924 21.9315 13.8604 23.8886 13.8604Z" fill="#555555"/>
<path id="Vector_83" d="M23.8886 13.8544C25.8423 13.8544 27.4262 12.289 27.4262 10.358C27.4262 8.42696 25.8423 6.86157 23.8886 6.86157C21.9348 6.86157 20.351 8.42696 20.351 10.358C20.351 12.289 21.9348 13.8544 23.8886 13.8544Z" fill="#555656"/>
<path id="Vector_84" d="M23.8885 13.8484C25.839 13.8484 27.4201 12.2857 27.4201 10.358C27.4201 8.43028 25.839 6.86755 23.8885 6.86755C21.9381 6.86755 20.3569 8.43028 20.3569 10.358C20.3569 12.2857 21.9381 13.8484 23.8885 13.8484Z" fill="#565757"/>
<path id="Vector_85" d="M23.8886 13.843C25.8359 13.843 27.4145 12.2827 27.4145 10.3581C27.4145 8.4335 25.8359 6.87329 23.8886 6.87329C21.9413 6.87329 20.3627 8.4335 20.3627 10.3581C20.3627 12.2827 21.9413 13.843 23.8886 13.843Z" fill="#575758"/>
<path id="Vector_86" d="M23.8885 13.837C25.8325 13.837 27.4084 12.2795 27.4084 10.3582C27.4084 8.43682 25.8325 6.87927 23.8885 6.87927C21.9446 6.87927 20.3687 8.43682 20.3687 10.3582C20.3687 12.2795 21.9446 13.837 23.8885 13.837Z" fill="#585859"/>
<path id="Vector_87" d="M23.8886 13.8313C25.8295 13.8313 27.4028 12.2763 27.4028 10.358C27.4028 8.4398 25.8295 6.88477 23.8886 6.88477C21.9478 6.88477 20.3744 8.4398 20.3744 10.358C20.3744 12.2763 21.9478 13.8313 23.8886 13.8313Z" fill="#59595A"/>
<path id="Vector_88" d="M23.8886 13.8254C25.8261 13.8254 27.3968 12.273 27.3968 10.3581C27.3968 8.44312 25.8261 6.89075 23.8886 6.89075C21.951 6.89075 20.3804 8.44312 20.3804 10.3581C20.3804 12.273 21.951 13.8254 23.8886 13.8254Z" fill="#5A5A5B"/>
<path id="Vector_89" d="M23.8885 13.8197C25.8229 13.8197 27.391 12.2698 27.391 10.358C27.391 8.4461 25.8229 6.89624 23.8885 6.89624C21.9541 6.89624 20.386 8.4461 20.386 10.358C20.386 12.2698 21.9541 13.8197 23.8885 13.8197Z" fill="#5B5B5C"/>
<path id="Vector_90" d="M23.8886 13.8139C25.8197 13.8139 27.3851 12.2667 27.3851 10.3581C27.3851 8.44954 25.8197 6.90234 23.8886 6.90234C21.9575 6.90234 20.3921 8.44954 20.3921 10.3581C20.3921 12.2667 21.9575 13.8139 23.8886 13.8139Z" fill="#5C5C5D"/>
<path id="Vector_91" d="M26.3566 12.7972C27.7197 11.4499 27.7197 9.26564 26.3566 7.91841C24.9935 6.57118 22.7834 6.57118 21.4203 7.91841C20.0572 9.26564 20.0572 11.4499 21.4203 12.7972C22.7834 14.1444 24.9935 14.1444 26.3566 12.7972Z" fill="#5C5D5E"/>
<path id="Vector_92" d="M26.3526 12.7932C27.7135 11.4482 27.7135 9.26741 26.3526 7.92237C24.9917 6.57733 22.7852 6.57733 21.4243 7.92237C20.0634 9.26742 20.0634 11.4482 21.4243 12.7932C22.7852 14.1382 24.9917 14.1382 26.3526 12.7932Z" fill="#5D5E5F"/>
<path id="Vector_93" d="M23.8886 13.7963C25.8098 13.7963 27.3674 12.2569 27.3674 10.358C27.3674 8.45915 25.8098 6.9198 23.8886 6.9198C21.9673 6.9198 20.4098 8.45915 20.4098 10.358C20.4098 12.2569 21.9673 13.7963 23.8886 13.7963Z" fill="#5E5F60"/>
<path id="Vector_94" d="M26.3443 12.785C27.7006 11.4445 27.7006 9.27108 26.3443 7.93055C24.9879 6.59002 22.7889 6.59002 21.4325 7.93055C20.0762 9.27107 20.0762 11.4445 21.4325 12.785C22.7889 14.1256 24.9879 14.1256 26.3443 12.785Z" fill="#5F6061"/>
<path id="Vector_95" d="M26.34 12.7808C27.694 11.4426 27.694 9.27296 26.34 7.93476C24.986 6.59655 22.7908 6.59655 21.4368 7.93476C20.0828 9.27296 20.0828 11.4426 21.4368 12.7808C22.7908 14.119 24.986 14.119 26.34 12.7808Z" fill="#606061"/>
<path id="Vector_96" d="M23.8885 13.7788C25.8 13.7788 27.3496 12.2473 27.3496 10.3581C27.3496 8.46889 25.8 6.93738 23.8885 6.93738C21.9771 6.93738 20.4275 8.46889 20.4275 10.3581C20.4275 12.2473 21.9771 13.7788 23.8885 13.7788Z" fill="#616162"/>
<path id="Vector_97" d="M26.3317 12.7726C27.6811 11.439 27.6811 9.27662 26.3317 7.94293C24.9823 6.60924 22.7945 6.60924 21.445 7.94293C20.0956 9.27662 20.0956 11.439 21.445 12.7726C22.7945 14.1063 24.9823 14.1063 26.3317 12.7726Z" fill="#626263"/>
<path id="Vector_98" d="M26.3275 12.7684C27.6745 11.4371 27.6745 9.27851 26.3275 7.94714C24.9804 6.61578 22.7964 6.61578 21.4493 7.94714C20.1023 9.27851 20.1023 11.4371 21.4493 12.7684C22.7964 14.0998 24.9804 14.0998 26.3275 12.7684Z" fill="#636364"/>
<path id="Vector_99" d="M26.3235 12.7645C27.6683 11.4353 27.6683 9.28028 26.3235 7.95111C24.9786 6.62193 22.7982 6.62193 21.4534 7.95111C20.1085 9.28028 20.1085 11.4353 21.4534 12.7645C22.7982 14.0936 24.9786 14.0936 26.3235 12.7645Z" fill="#636465"/>
<path id="Vector_100" d="M26.3192 12.7603C27.6617 11.4334 27.6617 9.28217 26.3192 7.95532C24.9768 6.62847 22.8001 6.62847 21.4577 7.95532C20.1152 9.28217 20.1152 11.4334 21.4577 12.7603C22.8001 14.0871 24.9768 14.0871 26.3192 12.7603Z" fill="#646566"/>
<path id="Vector_101" d="M23.8885 13.7497C25.7838 13.7497 27.3202 12.2312 27.3202 10.3581C27.3202 8.48493 25.7838 6.96643 23.8885 6.96643C21.9933 6.96643 20.4569 8.48493 20.4569 10.3581C20.4569 12.2312 21.9933 13.7497 23.8885 13.7497Z" fill="#656667"/>
<path id="Vector_102" d="M26.3109 12.7521C27.6488 11.4298 27.6488 9.28582 26.3109 7.96349C24.973 6.64116 22.8038 6.64116 21.4659 7.96349C20.1279 9.28583 20.1279 11.4298 21.4659 12.7521C22.8038 14.0744 24.973 14.0744 26.3109 12.7521Z" fill="#666768"/>
<path id="Vector_103" d="M26.3067 12.7479C27.6422 11.4279 27.6422 9.28771 26.3067 7.9677C24.9711 6.64769 22.8057 6.64769 21.4701 7.9677C20.1346 9.28771 20.1346 11.4279 21.4701 12.7479C22.8057 14.0679 24.9711 14.0679 26.3067 12.7479Z" fill="#676869"/>
<path id="Vector_104" d="M23.8885 13.7325C25.7742 13.7325 27.3028 12.2217 27.3028 10.358C27.3028 8.49433 25.7742 6.98352 23.8885 6.98352C22.0029 6.98352 20.4742 8.49433 20.4742 10.358C20.4742 12.2217 22.0029 13.7325 23.8885 13.7325Z" fill="#68696A"/>
<path id="Vector_105" d="M26.2983 12.7397C27.6293 11.4242 27.6294 9.29137 26.2983 7.97588C24.9673 6.66038 22.8094 6.66038 21.4784 7.97588C20.1474 9.29137 20.1474 11.4242 21.4784 12.7397C22.8094 14.0552 24.9673 14.0552 26.2983 12.7397Z" fill="#69696B"/>
<path id="Vector_106" d="M26.2944 12.7357C27.6232 11.4224 27.6232 9.29315 26.2944 7.97984C24.9656 6.66653 22.8112 6.66653 21.4824 7.97984C20.1536 9.29314 20.1536 11.4224 21.4824 12.7357C22.8112 14.049 24.9656 14.049 26.2944 12.7357Z" fill="#6A6A6C"/>
<path id="Vector_107" d="M23.8886 13.715C25.7645 13.715 27.2852 12.2121 27.2852 10.3581C27.2852 8.50407 25.7645 7.0011 23.8886 7.0011C22.0128 7.0011 20.4921 8.50407 20.4921 10.3581C20.4921 12.2121 22.0128 13.715 23.8886 13.715Z" fill="#6A6B6D"/>
<path id="Vector_108" d="M26.2859 12.7273C27.61 11.4187 27.61 9.29691 26.2859 7.98826C24.9618 6.67961 22.8151 6.67961 21.491 7.98826C20.1669 9.29692 20.1669 11.4187 21.491 12.7273C22.8151 14.036 24.9618 14.036 26.2859 12.7273Z" fill="#6B6C6E"/>
<path id="Vector_109" d="M26.2819 12.7234C27.6038 11.4169 27.6038 9.29869 26.2819 7.99222C24.9601 6.68576 22.8169 6.68576 21.495 7.99222C20.1731 9.29869 20.1731 11.4169 21.495 12.7234C22.8169 14.0298 24.9601 14.0298 26.2819 12.7234Z" fill="#6C6D6F"/>
<path id="Vector_110" d="M26.2776 12.7191C27.5971 11.415 27.5971 9.30057 26.2776 7.99643C24.9581 6.6923 22.8187 6.6923 21.4992 7.99644C20.1797 9.30057 20.1797 11.415 21.4992 12.7191C22.8187 14.0233 24.9581 14.0233 26.2776 12.7191Z" fill="#6D6E70"/>
</g>
<path id="Vector_111" d="M25.8005 12.2476C26.8564 11.204 26.8564 9.51185 25.8005 8.46818C24.7445 7.42452 23.0324 7.42452 21.9765 8.46818C20.9205 9.51185 20.9205 11.204 21.9765 12.2476C23.0324 13.2913 24.7445 13.2913 25.8005 12.2476Z" fill="white"/>
<path id="Vector_112" d="M30.9823 9.05188C32.6552 6.31495 33.9659 3.10545 34.3607 0C30.9486 0.25222 28.0723 1.73646 25.2932 3.37344L30.9823 9.05188Z" fill="#B95F5F"/>
<path id="Vector_113" d="M14.4458 12.2234L13.6097 13.0448L21.1096 20.5014L21.9456 19.68L14.4458 12.2234Z" fill="#6D6E70"/>
<path id="Vector_114" d="M14.6655 22.2409L13.2382 20.8218L11.8109 19.4027C11.8109 19.4027 7.44458 20.7987 7.64448 26.317C13.2268 26.5475 14.6651 22.2405 14.6651 22.2405L14.6655 22.2409Z" fill="#F2D139"/>
<path id="Vector_115" d="M14.1933 21.7714L13.2381 20.8217L12.2829 19.8721C12.2829 19.8721 9.36097 20.806 9.49495 24.4992C13.2307 24.6534 14.1933 21.7711 14.1933 21.7711V21.7714Z" fill="#B95F5F"/>
<path id="Vector_116" d="M21.9452 19.6799L17.0047 14.7679L16.1838 15.6045L21.1091 20.5014L21.9452 19.6799Z" fill="#6D6E70"/>
<path id="Vector_117" opacity="0.21" d="M15.0106 12.7788L14.1986 13.6304L15.8056 15.2523L16.6265 14.4161L15.0106 12.7788Z" fill="white"/>
<g id="Group_7">
<g id="Group_8">
<path id="Vector_118" d="M27.2525 7.86004C27.2142 7.70661 27.0575 7.61273 26.9023 7.65021C26.747 7.68804 26.6521 7.84288 26.69 7.99631C26.7279 8.14975 26.8849 8.24363 27.0402 8.20614C27.1954 8.16831 27.2904 8.01348 27.2525 7.86004ZM26.9905 8.08739L26.9569 7.95217L26.8201 7.98545L26.8105 7.94727L26.9473 7.91399L26.9136 7.77877L26.9523 7.76931L26.9859 7.90453L27.1227 7.87125L27.1323 7.90944L26.9955 7.94272L27.0292 8.07793L26.9905 8.08739Z" fill="#BFBFBF"/>
<path id="Vector_119" d="M21.0588 12.7547C21.0347 12.5985 20.8869 12.491 20.7288 12.5148C20.5707 12.5386 20.4619 12.6847 20.486 12.8409C20.5101 12.9971 20.6579 13.1047 20.816 13.0809C20.9741 13.0571 21.0829 12.911 21.0588 12.7547ZM20.777 12.9579L20.7557 12.8202L20.6164 12.8413L20.6104 12.8024L20.7497 12.7814L20.7284 12.6437L20.7678 12.6377L20.7891 12.7754L20.9283 12.7544L20.9344 12.7933L20.7951 12.8143L20.8163 12.952L20.777 12.9579Z" fill="#BFBFBF"/>
</g>
<g id="Group_9">
<path id="Vector_120" d="M24.4057 6.13187C24.2469 6.114 24.1034 6.2268 24.085 6.38373C24.0665 6.54067 24.181 6.68254 24.3398 6.70076C24.4986 6.71863 24.6421 6.60583 24.6606 6.44889C24.6786 6.29196 24.5645 6.15008 24.4057 6.13187ZM24.5301 6.4538L24.3901 6.43803L24.3742 6.5764L24.3348 6.57185L24.3508 6.43348L24.2108 6.41771L24.2154 6.37883L24.3554 6.39459L24.3713 6.25622L24.4107 6.26078L24.3947 6.39915L24.5347 6.41491L24.5301 6.4538Z" fill="#BFBFBF"/>
<path id="Vector_121" d="M23.5016 13.9486C23.3428 13.9308 23.1993 14.0436 23.1808 14.2005C23.1628 14.3574 23.2769 14.4993 23.4357 14.5175C23.5945 14.5354 23.738 14.4226 23.7564 14.2657C23.7745 14.1087 23.6604 13.9669 23.5016 13.9486ZM23.6264 14.2706L23.4864 14.2548L23.4704 14.3932L23.4311 14.3886L23.447 14.2503L23.307 14.2345L23.3116 14.1956L23.4516 14.2114L23.4676 14.073L23.5069 14.0776L23.491 14.2159L23.631 14.2317L23.6264 14.2706Z" fill="#BFBFBF"/>
</g>
<g id="Group_10">
<path id="Vector_122" d="M21.2899 7.05317C21.1648 7.15161 21.1439 7.33166 21.2435 7.45532C21.3431 7.57898 21.5253 7.59965 21.6504 7.50121C21.7755 7.40277 21.7964 7.22272 21.6968 7.09906C21.5972 6.9754 21.415 6.95473 21.2899 7.05317ZM21.6085 7.19364L21.4983 7.28017L21.5859 7.38911L21.5547 7.41363L21.4671 7.30469L21.3569 7.39121L21.3321 7.36039L21.4423 7.27386L21.3548 7.16492L21.386 7.1404L21.4735 7.24934L21.5837 7.16282L21.6085 7.19364Z" fill="#BFBFBF"/>
<path id="Vector_123" d="M26.1914 13.1477C26.0663 13.2461 26.0454 13.4261 26.145 13.5498C26.2446 13.6735 26.4267 13.6941 26.5519 13.5957C26.677 13.4973 26.6979 13.3172 26.5983 13.1935C26.4987 13.0699 26.3165 13.0492 26.1914 13.1477ZM26.5097 13.2881L26.3995 13.3747L26.487 13.4836L26.4558 13.5081L26.3683 13.3992L26.258 13.4857L26.2332 13.4549L26.3435 13.3683L26.2559 13.2594L26.2871 13.2349L26.3746 13.3438L26.4849 13.2573L26.5097 13.2881Z" fill="#BFBFBF"/>
</g>
<g id="Group_11">
<path id="Vector_124" d="M19.6786 9.84547C19.6606 10.0024 19.7747 10.1443 19.9335 10.1625C20.0923 10.1804 20.2358 10.0676 20.2542 9.91063C20.2723 9.75369 20.1582 9.61182 19.9994 9.5936C19.8406 9.57538 19.6971 9.68853 19.6786 9.84547ZM20.0044 9.72216L19.9884 9.86053L20.1284 9.8763L20.1238 9.91518L19.9838 9.89942L19.9679 10.0378L19.9285 10.0332L19.9445 9.89486L19.8045 9.8791L19.8091 9.84021L19.9491 9.85598L19.965 9.71761L20.0044 9.72216Z" fill="#BFBFBF"/>
<path id="Vector_125" d="M27.5875 10.7388C27.5694 10.8958 27.6835 11.0376 27.8423 11.0559C28.0011 11.0737 28.1446 10.9609 28.1631 10.804C28.1811 10.6471 28.067 10.5052 27.9082 10.487C27.7494 10.4691 27.6059 10.5819 27.5875 10.7388ZM27.9132 10.6159L27.8972 10.7543L28.0372 10.77L28.0326 10.8089L27.8926 10.7931L27.8767 10.9315L27.8373 10.927L27.8533 10.7886L27.7133 10.7728L27.7179 10.7339L27.8579 10.7497L27.8738 10.6113L27.9132 10.6159Z" fill="#BFBFBF"/>
</g>
</g>
<path id="Vector_126" d="M12.0589 14.5682L16.5971 10.1095C16.5971 10.1095 15.9697 9.72032 14.916 9.521C14.8401 10.5632 14.2103 11.489 13.4135 12.142C12.3275 13.0321 11.0785 13.0423 9.80503 13.4497C8.37595 13.9068 7.06312 14.7066 5.99414 15.748L6.10969 15.8629C6.10969 15.8629 9.92412 12.4457 12.0592 14.5685L12.0589 14.5682Z" fill="#A54949"/>
<path id="Vector_127" d="M22.9937 20.0928C23.4977 19.7723 24.1647 19.4854 24.7432 19.6234C24.5861 18.3465 24.097 17.566 24.097 17.566L19.5588 22.0247C19.796 22.2605 19.9636 22.5162 20.0745 22.7849C20.9773 21.8198 21.9041 20.882 22.9937 20.0931V20.0928Z" fill="#A54949"/>
<path id="Vector_128" d="M12.5591 17.4049L11.8147 18.136C11.4596 18.4849 11.4582 19.052 11.8108 19.403L11.8116 19.4037L13.1832 18.0256L12.5587 17.4049H12.5591Z" fill="#6D6E70"/>
<path id="Vector_129" opacity="0.21" d="M13.1832 18.0256L11.8115 19.4037L12.3939 19.9824L13.7893 18.6282L13.1832 18.0256Z" fill="white"/>
<path id="Vector_130" d="M15.947 22.2448L16.6913 21.5138L13.7892 18.6283L12.3938 19.9829L14.665 22.2413C15.018 22.5923 15.5919 22.5937 15.947 22.2452V22.2448Z" fill="#6D6E70"/>
</g>
<path id="Vector_131" opacity="0.13" d="M27.2341 4.94842L33.5774 0.459961C33.5774 0.459961 30.1759 0.814119 25.8071 3.4929L27.2341 4.94842Z" fill="white"/>
</g>
</g>
</g>
</g>
</svg>
