<svg width="38" height="29" viewBox="0 0 38 29" fill="none" xmlns="http://www.w3.org/2000/svg">
<g id="Single-Player-Icon">
<g id="Group">
<path id="Vector" d="M34.4311 23.2136H34.2817V20.1274C34.2817 19.004 33.4255 18.0796 32.326 17.9614C32.1752 16.4116 31.1383 15.0524 29.6518 14.5016C29.3436 14.3874 29.0201 14.3146 28.6927 14.2786C28.5894 13.5639 28.0132 13.002 27.2885 12.9158C27.2939 12.3423 27.2836 11.7489 27.2532 11.1408C27.2523 11.1217 27.2509 11.1021 27.25 11.083C27.2456 10.9955 27.2406 10.908 27.2353 10.8201C27.2335 10.7894 27.2312 10.7583 27.2295 10.7277C27.2241 10.6433 27.2183 10.5589 27.212 10.474L27.2102 10.4496L28.6905 10.255C28.9387 10.2226 29.017 9.27336 28.8654 8.13576C28.7137 6.99773 28.3894 6.10178 28.1411 6.13465L26.5786 6.33987C26.5625 6.27368 26.5455 6.20705 26.5289 6.14087C26.5177 6.09645 26.507 6.05158 26.4958 6.00716C26.4735 5.9201 26.4502 5.83304 26.4269 5.74597C26.4171 5.70999 26.4081 5.67446 26.3983 5.63848C26.3647 5.51544 26.3299 5.39239 26.2936 5.26935H26.2829C25.9845 4.09133 23.517 3.13586 20.315 2.91554C19.8573 2.884 19.3849 2.86757 18.9018 2.86757C15.2775 2.86757 12.2615 3.79505 11.6174 5.0206C11.5744 5.10233 11.5422 5.1854 11.5207 5.26935L11.5145 5.29156C11.4814 5.40572 11.4487 5.51988 11.4174 5.63404C11.4058 5.67712 11.3946 5.71977 11.383 5.76285C11.3619 5.84192 11.3405 5.92099 11.3203 5.99961C11.3078 6.04847 11.2962 6.09734 11.2837 6.1462C11.2676 6.21105 11.251 6.27546 11.2353 6.34031L9.67279 6.13509C9.42452 6.10267 9.1002 6.99861 8.94856 8.13621C8.79691 9.27425 8.87519 10.2231 9.12346 10.2555L10.6037 10.45C10.5872 10.6717 10.5742 10.8916 10.563 11.1097C10.5625 11.1203 10.5617 11.131 10.5612 11.1412H10.5617C10.5326 11.7293 10.5214 12.3041 10.5254 12.8603C9.7484 12.8771 9.10736 13.4373 8.97182 14.1742C7.66604 14.0036 6.5052 13.1281 6.04757 11.8768C5.94379 11.5934 5.87758 11.3016 5.84672 11.0044C6.92704 10.868 7.76266 9.95431 7.76266 8.84471V5.75841H7.91208C8.13082 5.75841 8.30797 5.58251 8.30797 5.3653V4.5071C8.30797 4.28989 8.13082 4.11399 7.91208 4.11399H7.39003L8.13664 2.62948C8.24042 2.42337 8.15587 2.17239 7.94831 2.06934C7.74074 1.96629 7.488 2.0498 7.38422 2.25635L6.44973 4.11399H6.41976L6.85815 2.11643C6.9078 1.89122 6.76376 1.66867 6.53696 1.61937C6.31016 1.57006 6.08604 1.71309 6.03639 1.9383L5.57429 4.0438V1.91742C5.57429 1.68689 5.38596 1.49988 5.15379 1.49988C4.92162 1.49988 4.73329 1.68689 4.73329 1.91742V4.11399H4.72793L4.26493 2.17195C4.21125 1.94763 3.9849 1.8086 3.75899 1.8619C3.53309 1.9152 3.39307 2.13997 3.44675 2.36429L3.86367 4.11399H3.22353C3.00478 4.11399 2.82764 4.28989 2.82764 4.5071V5.3653C2.82764 5.58251 3.00478 5.75841 3.22353 5.75841H3.37294V8.84471C3.37294 9.96808 4.22915 10.8925 5.3287 11.0106C5.47945 12.5604 6.51638 13.9197 8.00288 14.4705C8.3111 14.5846 8.63452 14.6575 8.96198 14.6935C9.07426 15.4708 9.74616 16.0687 10.5599 16.0687C10.6104 16.0687 10.6605 16.0656 10.7102 16.0612C10.924 18.0521 11.2667 19.5406 11.4326 20.1878L11.4335 20.1913C11.438 20.2082 11.442 20.2237 11.446 20.2393L11.4532 20.2664C11.4568 20.2806 11.4604 20.2939 11.4639 20.3073L11.4706 20.3326C11.4738 20.3441 11.4765 20.3548 11.4796 20.3654C11.4823 20.3748 11.4845 20.3837 11.4867 20.3921L11.4935 20.4161C11.4966 20.4272 11.4993 20.4378 11.502 20.4476L11.5046 20.4569C11.5163 20.4983 11.5239 20.5258 11.5275 20.5378L11.5284 20.5413L11.5297 20.5453C11.9171 21.8748 15.0695 22.9116 18.9014 22.9116C22.7333 22.9116 25.8856 21.8748 26.273 20.5453H26.2833C26.2833 20.5453 26.3039 20.4756 26.3393 20.3441C26.3397 20.3419 26.3401 20.3401 26.341 20.3379C26.346 20.3197 26.3509 20.3006 26.3562 20.2802C26.358 20.2726 26.3603 20.2646 26.3625 20.2571C26.367 20.2406 26.3715 20.2233 26.3759 20.2051C26.3773 20.1993 26.3786 20.194 26.3804 20.1882C26.545 19.5463 26.8828 18.0787 27.097 16.114C27.8888 16.1127 28.546 15.5454 28.6833 14.7983C29.9891 14.9689 31.1499 15.8444 31.6075 17.0957C31.7113 17.3791 31.7775 17.6709 31.8084 17.9681C30.7281 18.1045 29.8925 19.0182 29.8925 20.1278V23.2141H29.743C29.5243 23.2141 29.3471 23.39 29.3471 23.6072V24.4654C29.3471 24.6826 29.5243 24.8585 29.743 24.8585H30.2651L29.5185 26.343C29.4147 26.5491 29.4988 26.8001 29.7068 26.9032C29.9144 27.0062 30.1671 26.9227 30.2709 26.7162L31.2054 24.8585H31.2354L30.797 26.8561C30.7473 27.0813 30.8914 27.3038 31.1182 27.3531C31.345 27.4024 31.5691 27.2594 31.6187 27.0342L32.0808 24.9287V27.0555C32.0808 27.2861 32.2692 27.4731 32.5013 27.4731C32.7335 27.4731 32.9218 27.2861 32.9218 27.0555V24.859H32.9272L33.3902 26.801C33.4439 27.0253 33.6702 27.1644 33.8961 27.111C34.122 27.0577 34.262 26.833 34.2084 26.6087L33.7914 24.859H34.4316C34.6503 24.859 34.8275 24.6831 34.8275 24.4658V23.6077C34.8275 23.3904 34.6503 23.2145 34.4316 23.2145L34.4311 23.2136Z" fill="white"/>
<path id="Vector_2" d="M22.1312 23.8708C22.0086 23.809 21.8453 23.7606 21.64 23.7158C21.0258 23.5834 20.0336 23.4999 18.9067 23.4999C17.9915 23.4999 17.1635 23.5554 16.5569 23.6469C16.2531 23.6927 16.0058 23.7469 15.8228 23.8117C15.7311 23.8446 15.655 23.8792 15.5911 23.9259C15.5593 23.9494 15.5293 23.9765 15.5047 24.0129C15.4801 24.0489 15.4614 24.0973 15.4618 24.1493C15.4618 24.2013 15.4806 24.2497 15.5047 24.2857C15.5522 24.3532 15.6126 24.3914 15.6823 24.4283C15.8049 24.49 15.9682 24.5384 16.1735 24.5833C16.7877 24.7156 17.7799 24.7992 18.9067 24.7992C19.822 24.7992 20.65 24.7436 21.2566 24.6521C21.5604 24.6064 21.8077 24.5522 21.9907 24.4873C22.0824 24.4545 22.1584 24.4198 22.2224 24.3732C22.2542 24.3496 22.2841 24.3225 22.3087 24.2861C22.3334 24.2501 22.3521 24.2017 22.3517 24.1497C22.3517 24.0978 22.3329 24.0494 22.3087 24.0134C22.2613 23.9459 22.2009 23.9072 22.1312 23.8708ZM21.9746 24.1617C21.8882 24.203 21.7388 24.2484 21.5469 24.2883C20.9681 24.41 19.9991 24.4918 18.9067 24.4913C18.0049 24.4913 17.1876 24.4358 16.6034 24.3479C16.3117 24.3039 16.0773 24.2515 15.9275 24.1977C15.8805 24.1813 15.8429 24.1644 15.8152 24.1493L15.8389 24.1373C15.9252 24.096 16.0747 24.0507 16.2666 24.0107C16.8454 23.889 17.8143 23.8073 18.9067 23.8077C19.8086 23.8077 20.6259 23.8632 21.2101 23.9512C21.5018 23.9952 21.7362 24.0476 21.886 24.1013C21.933 24.1178 21.9706 24.1346 21.9983 24.1497L21.9746 24.1617Z" fill="white"/>
<path id="Vector_3" d="M20.9807 25.7304C20.8854 25.6744 20.7678 25.6291 20.6291 25.5887C20.2135 25.4683 19.5989 25.3955 18.9073 25.395C18.3052 25.395 17.7608 25.451 17.3564 25.5443C17.1537 25.5914 16.9864 25.6469 16.8576 25.7171C16.7932 25.7526 16.7368 25.7917 16.6912 25.8432C16.646 25.8939 16.6089 25.964 16.6089 26.0449C16.6089 26.1253 16.6456 26.1959 16.6912 26.2465C16.7315 26.2919 16.7793 26.3274 16.8339 26.3594C16.9292 26.4153 17.0468 26.4607 17.1855 26.5011C17.6011 26.6215 18.2157 26.6943 18.9073 26.6947C19.5094 26.6947 20.0538 26.6388 20.4582 26.5455C20.6609 26.4984 20.8282 26.4429 20.957 26.3727C21.0214 26.3372 21.0773 26.2981 21.1234 26.2465C21.1686 26.1959 21.2057 26.1257 21.2057 26.0449C21.2057 25.9645 21.169 25.8939 21.1234 25.8432C21.0832 25.7979 21.0353 25.7624 20.9807 25.7304ZM20.8483 26.0782C20.7964 26.1137 20.7038 26.1559 20.5826 26.1932C20.4005 26.2501 20.154 26.2994 19.8677 26.3332C19.581 26.3674 19.254 26.3869 18.9069 26.3869C18.3249 26.3869 17.7979 26.3318 17.4262 26.2457C17.241 26.203 17.0942 26.1515 17.0066 26.1031C16.9645 26.0804 16.9372 26.0587 16.9252 26.0453C16.9323 26.0373 16.9439 26.0258 16.9654 26.0116C17.0173 25.976 17.1099 25.9338 17.2311 25.8965C17.4132 25.8397 17.6597 25.7904 17.946 25.7566C18.2327 25.7224 18.5597 25.7028 18.9069 25.7028C19.4888 25.7028 20.0158 25.7579 20.3875 25.8441C20.5727 25.8867 20.7195 25.9383 20.8071 25.9867C20.8492 26.0093 20.8765 26.0311 20.8886 26.0444C20.8814 26.0524 20.8698 26.064 20.8483 26.0782Z" fill="white"/>
</g>
<g id="Group_2">
<path id="Vector_4" d="M4.26495 2.17202C4.21126 1.9477 3.98491 1.80866 3.75901 1.86197C3.5331 1.91527 3.39308 2.14004 3.44677 2.36436L3.86368 4.11406H4.72794L4.26495 2.17202Z" fill="#C5BEC0"/>
<path id="Vector_5" d="M6.41986 4.11399L6.85825 2.11643C6.90791 1.89122 6.76386 1.66867 6.53706 1.61937C6.31026 1.57006 6.08615 1.71309 6.03649 1.9383L5.57439 4.0438V1.91742C5.57439 1.68689 5.38606 1.49988 5.1539 1.49988C4.92173 1.49988 4.7334 1.68689 4.7334 1.91742V4.11399H6.41986Z" fill="#C5BEC0"/>
<path id="Vector_6" d="M8.13662 2.6293C8.2404 2.42319 8.15585 2.17221 7.94829 2.06916C7.74072 1.96611 7.48798 2.04962 7.38419 2.25617L6.44971 4.11381H7.39001L8.13662 2.6293Z" fill="#C5BEC0"/>
<path id="Vector_7" d="M5.3291 11.0102C5.47985 12.56 6.51678 13.9192 8.00329 14.47C8.3115 14.5842 8.63493 14.657 8.96238 14.693C8.95164 14.618 8.94404 14.5415 8.94404 14.4634C8.94404 14.3643 8.95433 14.2679 8.97177 14.1742C7.66599 14.0036 6.50515 13.1281 6.04753 11.8768C5.94374 11.5934 5.87754 11.3016 5.84667 11.0044C5.75497 11.0159 5.66237 11.0239 5.56798 11.0239C5.48701 11.0239 5.40783 11.0191 5.3291 11.0106V11.0102Z" fill="black"/>
<path id="Vector_8" d="M3.37305 8.84423C3.37305 9.96761 4.22925 10.892 5.32881 11.0101C5.40709 11.0186 5.48672 11.0235 5.56768 11.0235C5.66252 11.0235 5.75512 11.0155 5.84638 11.0039C6.9267 10.8676 7.76232 9.95384 7.76232 8.84423V5.75793H3.37305V8.84423Z" fill="#C5BEC0"/>
<path id="Vector_9" d="M3.22353 5.75807H7.91208C8.13082 5.75807 8.30797 5.58217 8.30797 5.36496V4.50676C8.30797 4.28955 8.13082 4.11365 7.91208 4.11365H3.22353C3.00478 4.11365 2.82764 4.28955 2.82764 4.50676V5.36496C2.82764 5.58217 3.00478 5.75807 3.22353 5.75807Z" fill="#4B4949"/>
<path id="Vector_10" d="M8.96203 14.6931C9.07431 15.4704 9.74621 16.0683 10.5599 16.0683C10.6105 16.0683 10.6606 16.0652 10.7102 16.0608C10.6069 15.0982 10.5335 14.0188 10.5246 12.8599C9.74755 12.8767 9.10652 13.4369 8.97097 14.1738C8.95353 14.268 8.94324 14.3644 8.94324 14.463C8.94324 14.5412 8.95084 14.6176 8.96158 14.6926L8.96203 14.6931Z" fill="#4B4949"/>
<path id="Vector_11" d="M33.3893 26.7997C33.4429 27.024 33.6693 27.1631 33.8952 27.1098C34.1211 27.0564 34.2611 26.8317 34.2074 26.6074L33.7905 24.8577H32.9263L33.3893 26.7997Z" fill="#C5BEC0"/>
<path id="Vector_12" d="M31.2344 24.8577L30.796 26.8548C30.7464 27.08 30.8904 27.3025 31.1172 27.3518C31.344 27.4011 31.5682 27.2581 31.6178 27.0329L32.0799 24.9274V27.0542C32.0799 27.2848 32.2682 27.4718 32.5004 27.4718C32.7326 27.4718 32.9209 27.2848 32.9209 27.0542V24.8577H31.2344Z" fill="#C5BEC0"/>
<path id="Vector_13" d="M29.5176 26.3422C29.4138 26.5483 29.4979 26.7993 29.7059 26.9023C29.9135 27.0054 30.1662 26.9219 30.27 26.7153L31.2045 24.8577H30.2642L29.5176 26.3422Z" fill="#C5BEC0"/>
<path id="Vector_14" d="M28.6829 14.798C29.9886 14.9685 31.1495 15.844 31.6071 17.0954C31.7109 17.3787 31.7771 17.6706 31.808 17.9678C31.8997 17.9562 31.9923 17.9482 32.0867 17.9482C32.1676 17.9482 32.2468 17.9531 32.3255 17.9615C32.1748 16.4117 31.1379 15.0525 29.6513 14.5017C29.3431 14.3875 29.0197 14.3147 28.6923 14.2787C28.703 14.3538 28.7106 14.4302 28.7106 14.5083C28.7106 14.6074 28.7003 14.7038 28.6829 14.7975V14.798Z" fill="black"/>
<path id="Vector_15" d="M31.8074 17.9678C30.7271 18.1042 29.8915 19.0179 29.8915 20.1275V23.2138H34.2808V20.1275C34.2808 19.0041 33.4246 18.0797 32.325 17.9616C32.2467 17.9531 32.1671 17.9482 32.0861 17.9482C31.9913 17.9482 31.8987 17.9562 31.8074 17.9678Z" fill="#C5BEC0"/>
<path id="Vector_16" d="M29.7422 23.2136C29.5235 23.2136 29.3463 23.3895 29.3463 23.6067V24.4649C29.3463 24.6821 29.5235 24.858 29.7422 24.858H34.4308C34.6495 24.858 34.8266 24.6821 34.8266 24.4649V23.6067C34.8266 23.3895 34.6495 23.2136 34.4308 23.2136H29.7422Z" fill="#4B4949"/>
<path id="Vector_17" d="M28.6829 14.798C28.7003 14.7038 28.7106 14.6079 28.7106 14.5088C28.7106 14.4307 28.703 14.3543 28.6923 14.2792C28.5889 13.5645 28.0127 13.0026 27.2881 12.9164C27.2769 14.0753 27.2022 15.1538 27.097 16.1137C27.8888 16.1124 28.546 15.5451 28.6833 14.798H28.6829Z" fill="#4B4949"/>
<path id="Vector_18" d="M11.4792 20.3654C11.4765 20.3547 11.4733 20.3441 11.4702 20.3325C11.4733 20.3441 11.476 20.3547 11.4792 20.3654Z" fill="#4B4949"/>
<path id="Vector_19" d="M11.4165 5.63361C11.4478 5.51946 11.48 5.4053 11.5136 5.29114C11.4805 5.4053 11.4478 5.51946 11.4165 5.63361Z" fill="#4B4949"/>
<path id="Vector_20" d="M27.2349 10.8202C27.2402 10.9081 27.2452 10.9961 27.2496 11.0836C27.2452 10.9961 27.2402 10.9086 27.2349 10.8202Z" fill="#4B4949"/>
<path id="Vector_21" d="M11.2827 6.14575C11.2666 6.2106 11.25 6.27501 11.2344 6.33987C11.25 6.27546 11.2661 6.2106 11.2822 6.14575H11.2827Z" fill="#4B4949"/>
<path id="Vector_22" d="M11.4327 20.1873H21.5063V18.9649C21.5063 18.6175 21.7899 18.3359 22.1397 18.3359H24.1416C24.4914 18.3359 24.775 18.6175 24.775 18.9649V20.1873H26.3805C26.321 20.4201 26.2839 20.5449 26.2839 20.5449C26.2839 20.5449 26.805 18.789 27.0971 16.1131C27.2018 15.1528 27.277 14.0742 27.2881 12.9158C27.2935 12.3423 27.2832 11.7489 27.2528 11.1408H10.5604C10.5716 10.9124 10.5859 10.6819 10.6033 10.4496C10.5416 11.2807 10.5192 12.0878 10.5251 12.8598C10.534 14.0187 10.6074 15.0981 10.7107 16.0607C10.9245 18.0516 11.2672 19.5401 11.4332 20.1873H11.4327ZM23.288 12.273C25.9873 12.273 26.07 12.2744 25.9873 14.9533C25.9045 17.6336 25.3919 17.6336 23.288 17.6336C21.1842 17.6336 20.753 17.6336 20.5888 14.9533C20.4331 12.4161 20.5852 12.273 23.288 12.273ZM15.1192 12.1504C17.8184 12.1504 17.9012 12.1522 17.8184 15.7977C17.7357 19.4451 17.223 19.4451 15.1192 19.4451C13.0154 19.4451 12.5842 19.4451 12.42 15.7977C12.2643 12.345 12.4164 12.1504 15.1192 12.1504Z" fill="#4B4949"/>
<g id="Group_3">
<path id="Vector_23" d="M27.2523 11.0831C27.2478 10.9956 27.2429 10.9081 27.2375 10.8202C27.2357 10.7895 27.2335 10.7584 27.2317 10.7278C27.2263 10.6434 27.2205 10.559 27.2142 10.4741C27.2138 10.4661 27.2133 10.4581 27.2124 10.4497L27.0483 10.4715L27.0474 10.4653C26.8031 10.4337 26.4967 9.56397 26.3504 8.4668C26.2041 7.36963 26.2721 6.45058 26.4998 6.35686L26.4989 6.35064L26.5804 6.33998C26.5643 6.27379 26.5477 6.20716 26.5311 6.14098C26.52 6.09656 26.5092 6.05169 26.498 6.00727C26.4757 5.92021 26.4524 5.83315 26.4292 5.74608C26.4193 5.7101 26.4104 5.67457 26.4005 5.63859C26.367 5.51554 26.3321 5.3925 26.2958 5.26946C25.955 3.92265 22.7704 2.86768 18.904 2.86768C15.2797 2.86768 12.2638 3.79516 11.6196 5.02071C11.5767 5.10244 11.5444 5.18551 11.523 5.26946C11.5207 5.27701 11.5189 5.28412 11.5167 5.29167C11.4836 5.40583 11.451 5.51999 11.4196 5.63415C11.408 5.67723 11.3968 5.71988 11.3852 5.76296C11.3642 5.84203 11.3427 5.9211 11.3226 5.99972C11.31 6.04858 11.2984 6.09745 11.2859 6.14631C11.2698 6.21116 11.2537 6.27557 11.238 6.34042L11.3194 6.35108L11.3185 6.3573C11.5462 6.45103 11.6142 7.37008 11.468 8.46725C11.3217 9.56442 11.0152 10.4342 10.771 10.4657L10.7701 10.4719L10.6059 10.4502C10.5889 10.6825 10.5746 10.913 10.563 11.1413H27.2554C27.2545 11.1222 27.2532 11.1027 27.2523 11.0836V11.0831ZM18.913 9.76253C12.4275 9.76253 12.8811 8.61028 12.8811 7.1884C12.8811 5.76652 15.5817 4.61427 18.913 4.61427C22.2443 4.61427 24.9449 5.76652 24.9449 7.1884C24.9449 8.61028 24.9449 9.76253 18.913 9.76253Z" fill="#C5BEC0"/>
</g>
<path id="Vector_24" d="M24.7745 20.1874H11.4326C11.4326 20.1874 11.4331 20.1896 11.4335 20.1909C11.438 20.2078 11.442 20.2234 11.446 20.2389C11.4483 20.2478 11.451 20.2571 11.4532 20.266C11.4568 20.2802 11.4604 20.2935 11.4639 20.3069C11.4662 20.3158 11.4684 20.3242 11.4706 20.3322C11.4738 20.3437 11.4765 20.3544 11.4796 20.3651C11.4823 20.3744 11.4845 20.3833 11.4867 20.3917C11.489 20.4001 11.4912 20.4081 11.4935 20.4157C11.4966 20.4268 11.4993 20.4375 11.502 20.4472C11.5028 20.4503 11.5037 20.4535 11.5046 20.4566C11.5163 20.4979 11.5239 20.5254 11.5275 20.5374L11.5283 20.541L11.5297 20.545C11.9171 21.8744 15.0695 22.9112 18.9014 22.9112C22.7333 22.9112 25.8856 21.8744 26.273 20.545H26.2833C26.2833 20.545 26.3205 20.4201 26.38 20.1874H24.7745Z" fill="black"/>
<path id="Vector_25" d="M15.1191 19.4455C17.2229 19.4455 17.7356 19.4455 17.8183 15.7982C17.9011 12.1527 17.8183 12.1509 15.1191 12.1509C12.4198 12.1509 12.2642 12.3454 12.4198 15.7982C12.584 19.4455 12.9786 19.4455 15.1191 19.4455ZM13.0962 13.6687C13.2577 12.8203 13.7713 12.751 15.1164 12.751C16.4615 12.751 16.9764 12.7519 17.1236 13.6687C17.1656 13.9312 17.1809 14.2697 17.1818 14.7041C17.1822 15.0017 17.1764 15.3442 17.1683 15.7396V15.7658C17.1598 16.1487 17.1464 16.4832 17.1263 16.775C17.0963 17.2063 17.0507 17.5448 16.984 17.8104C16.7402 18.7801 16.2124 18.7805 15.1168 18.7805C14.0213 18.7805 13.5105 18.7805 13.2711 17.8104C13.2058 17.5448 13.1588 17.2063 13.124 16.775C13.1002 16.4832 13.0815 16.1491 13.0654 15.7658L13.0645 15.7396C13.0484 15.3442 13.0367 15.0022 13.0345 14.7041C13.0309 14.2706 13.047 13.9317 13.0971 13.6687H13.0962Z" fill="#C5BEC0"/>
<path id="Vector_26" d="M15.1165 12.751C13.7713 12.751 13.2578 12.8203 13.0963 13.6687H17.1237C16.9761 12.7514 16.4961 12.751 15.1165 12.751Z" fill="#666666"/>
<path id="Vector_27" d="M17.1817 14.7041C17.1809 14.2697 17.1661 13.9317 17.1236 13.6687H13.0962C13.0461 13.9317 13.0305 14.2706 13.0336 14.7041H17.1813H17.1817Z" fill="#4B4949"/>
<path id="Vector_28" d="M13.0642 15.739H17.1685C17.1765 15.3441 17.1823 15.0012 17.1819 14.7036H13.0342C13.0364 15.0017 13.048 15.3437 13.0642 15.739Z" fill="#666666"/>
<path id="Vector_29" d="M13.065 15.7655C13.0806 16.1484 13.0994 16.4828 13.1236 16.7747H17.1264C17.1465 16.4828 17.1599 16.1488 17.168 15.7655V15.7393H13.0641L13.065 15.7655Z" fill="#4B4949"/>
<path id="Vector_30" d="M13.2707 17.8098H16.9836C17.0502 17.5442 17.0959 17.2057 17.1258 16.7744H13.123C13.1584 17.2057 13.2049 17.5442 13.2702 17.8098H13.2707Z" fill="#666666"/>
<path id="Vector_31" d="M15.1165 18.7797C16.212 18.7797 16.7399 18.7797 16.9837 17.8096H13.2708C13.5101 18.7793 14.0017 18.7797 15.1165 18.7797Z" fill="#4B4949"/>
<path id="Vector_32" d="M23.2879 17.6339C25.3917 17.6339 25.9044 17.6339 25.9871 14.9536C26.0699 12.2746 25.9871 12.2733 23.2879 12.2733C20.5887 12.2733 20.433 12.4163 20.5887 14.9536C20.7528 17.6339 21.1474 17.6339 23.2879 17.6339ZM25.1784 13.3447C25.3434 13.3447 25.4772 13.4775 25.4772 13.6414C25.4772 13.8054 25.3434 13.9382 25.1784 13.9382C25.0133 13.9382 24.8795 13.8054 24.8795 13.6414C24.8795 13.4775 25.0133 13.3447 25.1784 13.3447ZM25.1784 14.5712C25.3434 14.5712 25.4772 14.704 25.4772 14.8679C25.4772 15.0318 25.3434 15.1646 25.1784 15.1646C25.0133 15.1646 24.8795 15.0318 24.8795 14.8679C24.8795 14.704 25.0133 14.5712 25.1784 14.5712ZM25.1784 15.798C25.3434 15.798 25.4772 15.9308 25.4772 16.0948C25.4772 16.2587 25.3434 16.3915 25.1784 16.3915C25.0133 16.3915 24.8795 16.2587 24.8795 16.0948C24.8795 15.9308 25.0133 15.798 25.1784 15.798ZM22.8714 12.9356C24.4872 12.9356 24.5369 12.9365 24.4872 14.9532C24.4376 16.9707 24.1307 16.9707 22.8714 16.9707C21.6122 16.9707 21.3536 16.9707 21.2552 14.9532C21.1622 13.0431 21.253 12.9356 22.8714 12.9356Z" fill="#C5BEC0"/>
<path id="Vector_33" d="M24.7744 18.9648C24.7744 18.6174 24.4908 18.3358 24.141 18.3358H22.1392C21.7893 18.3358 21.5057 18.6174 21.5057 18.9648V20.1872H24.774V18.9648H24.7744Z" fill="#666666"/>
<path id="Vector_34" d="M25.1783 13.9384C25.3434 13.9384 25.4772 13.8056 25.4772 13.6417C25.4772 13.4778 25.3434 13.345 25.1783 13.345C25.0133 13.345 24.8795 13.4778 24.8795 13.6417C24.8795 13.8056 25.0133 13.9384 25.1783 13.9384Z" fill="black"/>
<path id="Vector_35" d="M25.1783 15.1653C25.3434 15.1653 25.4772 15.0325 25.4772 14.8686C25.4772 14.7047 25.3434 14.5719 25.1783 14.5719C25.0133 14.5719 24.8795 14.7047 24.8795 14.8686C24.8795 15.0325 25.0133 15.1653 25.1783 15.1653Z" fill="black"/>
<path id="Vector_36" d="M25.1783 16.3915C25.3434 16.3915 25.4772 16.2587 25.4772 16.0948C25.4772 15.9309 25.3434 15.7981 25.1783 15.7981C25.0133 15.7981 24.8795 15.9309 24.8795 16.0948C24.8795 16.2587 25.0133 16.3915 25.1783 16.3915Z" fill="black"/>
<path id="Vector_37" d="M10.767 10.4713L10.7679 10.4651C11.0122 10.4336 11.3186 9.56381 11.4649 8.46664C11.6111 7.36947 11.5431 6.45042 11.3154 6.3567L11.3163 6.35048L11.2349 6.33982L9.67238 6.13416C9.92065 6.16658 9.99893 7.11583 9.84729 8.25343C9.69564 9.39146 9.37132 10.2874 9.12305 10.2545L10.6033 10.4491L10.7675 10.4709L10.767 10.4713Z" fill="#4B4949"/>
<path id="Vector_38" d="M9.8467 8.25391C9.99835 7.11588 9.92006 6.16707 9.67179 6.13464C9.42352 6.10222 9.0992 6.99816 8.94755 8.13576C8.79591 9.2738 8.87419 10.2226 9.12246 10.255C9.37073 10.2875 9.69505 9.39151 9.8467 8.25391Z" fill="#C5BEC0"/>
<path id="Vector_39" d="M26.4962 6.35052L26.4971 6.35674C26.2694 6.45047 26.2015 7.36952 26.3477 8.46669C26.494 9.56386 26.8004 10.4336 27.0447 10.4651L27.0456 10.4714L27.2097 10.4496L28.69 10.255C28.4417 10.2875 28.1174 9.39151 27.9657 8.25392C27.8141 7.11588 27.8924 6.16707 28.1407 6.13464L26.5781 6.33986L26.4967 6.35052H26.4962Z" fill="#4B4949"/>
<path id="Vector_40" d="M27.9659 8.25394C28.1175 9.39198 28.4418 10.2879 28.6901 10.2551C28.9384 10.2226 29.0167 9.27337 28.865 8.13578C28.7134 6.99774 28.389 6.10179 28.1408 6.13467C27.8925 6.16709 27.8142 7.11635 27.9659 8.25394Z" fill="#C5BEC0"/>
<path id="Vector_41" d="M15.9002 8.07075C16.2947 8.07075 16.6146 7.75315 16.6146 7.36136C16.6146 6.96958 16.2947 6.65198 15.9002 6.65198C15.5056 6.65198 15.1858 6.96958 15.1858 7.36136C15.1858 7.75315 15.5056 8.07075 15.9002 8.07075ZM16.3771 7.35292C16.4227 7.41111 16.4218 7.48752 16.3753 7.5235C16.3287 7.55948 16.254 7.54126 16.2084 7.48307C16.1628 7.42488 16.1637 7.34848 16.2097 7.3125C16.2563 7.27652 16.331 7.29473 16.3766 7.35292H16.3771ZM15.8635 6.86919C15.9507 6.80167 16.0912 6.83588 16.1771 6.94515C16.263 7.05487 16.2616 7.19834 16.174 7.26586C16.0867 7.33338 15.9463 7.29918 15.8604 7.18946C15.7745 7.07974 15.7758 6.93626 15.8635 6.86919Z" fill="black"/>
<path id="Vector_42" d="M16.174 7.2659C16.2613 7.19838 16.2626 7.05491 16.1772 6.94519C16.0913 6.83547 15.9512 6.80172 15.8636 6.86923C15.7763 6.93675 15.775 7.08023 15.8604 7.1895C15.9463 7.29922 16.0863 7.33298 16.174 7.2659Z" fill="white"/>
<path id="Vector_43" d="M16.2089 7.48324C16.2545 7.54143 16.3292 7.55964 16.3758 7.52366C16.4223 7.48768 16.4232 7.41128 16.3775 7.35309C16.3319 7.2949 16.2572 7.27668 16.2107 7.31266C16.1642 7.34864 16.1633 7.42505 16.2094 7.48324H16.2089Z" fill="white"/>
<path id="Vector_44" d="M21.9125 8.07075C22.3071 8.07075 22.6269 7.75315 22.6269 7.36136C22.6269 6.96958 22.3071 6.65198 21.9125 6.65198C21.518 6.65198 21.1981 6.96958 21.1981 7.36136C21.1981 7.75315 21.518 8.07075 21.9125 8.07075ZM22.3898 7.35292C22.4355 7.41111 22.4346 7.48752 22.388 7.5235C22.3415 7.55948 22.2668 7.54126 22.2212 7.48307C22.1756 7.42488 22.1764 7.34848 22.223 7.3125C22.2695 7.27652 22.3442 7.29473 22.3898 7.35292ZM21.8758 6.86919C21.9631 6.80167 22.1035 6.83588 22.1894 6.94515C22.2753 7.05487 22.274 7.19834 22.1863 7.26586C22.0991 7.33338 21.9586 7.29918 21.8727 7.18946C21.7868 7.07974 21.7882 6.93626 21.8758 6.86919Z" fill="black"/>
<path id="Vector_45" d="M22.1862 7.2659C22.2735 7.19838 22.2748 7.05491 22.1894 6.94519C22.1035 6.83547 21.9635 6.80172 21.8758 6.86923C21.7885 6.93675 21.7872 7.08023 21.8726 7.1895C21.9585 7.29922 22.0986 7.33298 22.1862 7.2659Z" fill="white"/>
<path id="Vector_46" d="M22.221 7.48324C22.2667 7.54143 22.3414 7.55964 22.3879 7.52366C22.4344 7.48768 22.4353 7.41128 22.3897 7.35309C22.3441 7.2949 22.2694 7.27668 22.2228 7.31266C22.1763 7.34864 22.1754 7.42505 22.221 7.48324Z" fill="white"/>
<path id="Vector_47" d="M21.9903 24.4873C22.082 24.4545 22.1581 24.4198 22.222 24.3732C22.2538 24.3496 22.2838 24.3225 22.3084 24.2861C22.333 24.2501 22.3518 24.2017 22.3513 24.1497C22.3513 24.0978 22.3325 24.0494 22.3084 24.0134C22.261 23.9459 22.2006 23.9072 22.1308 23.8708C22.0082 23.809 21.8449 23.7606 21.6396 23.7158C21.0254 23.5834 20.0332 23.4999 18.9064 23.4999C17.9911 23.4999 17.1631 23.5554 16.5565 23.6469C16.2528 23.6927 16.0054 23.7469 15.8224 23.8117C15.7307 23.8446 15.6547 23.8792 15.5907 23.9259C15.559 23.9494 15.529 23.9765 15.5044 24.0129C15.4798 24.0489 15.461 24.0973 15.4614 24.1493C15.4614 24.2013 15.4802 24.2497 15.5044 24.2857C15.5518 24.3532 15.6122 24.3914 15.682 24.4283C15.8045 24.49 15.9678 24.5384 16.1731 24.5833C16.7873 24.7156 17.7795 24.7992 18.9064 24.7992C19.8216 24.7992 20.6497 24.7436 21.2562 24.6521C21.56 24.6059 21.8074 24.5522 21.9903 24.4873ZM16.6035 24.3479C16.3118 24.3043 16.0774 24.2515 15.9276 24.1977C15.8806 24.1813 15.843 24.1644 15.8153 24.1493C15.8229 24.1453 15.83 24.1413 15.839 24.1373C15.9253 24.096 16.0747 24.0507 16.2666 24.0107C16.8455 23.889 17.8144 23.8073 18.9068 23.8077C19.8087 23.8077 20.6259 23.8632 21.2102 23.9512C21.5018 23.9952 21.7362 24.0476 21.8861 24.1013C21.9331 24.1178 21.9706 24.1346 21.9984 24.1497C21.9908 24.1537 21.9836 24.1577 21.9747 24.1617C21.8883 24.203 21.7389 24.2484 21.547 24.2883C20.9682 24.41 19.9992 24.4918 18.9068 24.4913C18.005 24.4913 17.1877 24.4358 16.6035 24.3479Z" fill="#F9B233"/>
<path id="Vector_48" d="M20.9559 26.3727C21.0203 26.3372 21.0767 26.2981 21.1223 26.2465C21.1675 26.1959 21.2046 26.1257 21.2046 26.0449C21.2046 25.9645 21.1679 25.8939 21.1223 25.8432C21.0821 25.7979 21.0342 25.7624 20.9796 25.7304C20.8843 25.6744 20.7667 25.6291 20.628 25.5887C20.2124 25.4683 19.5978 25.3955 18.9062 25.395C18.3041 25.395 17.7597 25.451 17.3553 25.5443C17.1526 25.5914 16.9853 25.6469 16.8565 25.7171C16.7921 25.7526 16.7357 25.7917 16.6901 25.8432C16.6449 25.8939 16.6078 25.964 16.6078 26.0449C16.6078 26.1253 16.6445 26.1959 16.6901 26.2465C16.7304 26.2919 16.7782 26.3274 16.8328 26.3594C16.9281 26.4153 17.0457 26.4607 17.1844 26.5011C17.6 26.6215 18.2146 26.6943 18.9062 26.6947C19.5083 26.6947 20.0527 26.6388 20.4571 26.5455C20.6598 26.4984 20.8271 26.4429 20.9559 26.3727ZM18.9062 26.3869C18.3242 26.3869 17.7973 26.3318 17.4255 26.2457C17.2403 26.203 17.0936 26.1515 17.0059 26.1031C16.9639 26.0804 16.9366 26.0587 16.9245 26.0453C16.9317 26.0373 16.9433 26.0258 16.9648 26.0116C17.0167 25.976 17.1093 25.9338 17.2305 25.8965C17.4125 25.8397 17.659 25.7904 17.9453 25.7566C18.2321 25.7224 18.5591 25.7028 18.9062 25.7028C19.4882 25.7028 20.0152 25.7579 20.3869 25.8441C20.5721 25.8867 20.7188 25.9383 20.8065 25.9867C20.8485 26.0093 20.8758 26.0311 20.8879 26.0444C20.8808 26.0524 20.8691 26.064 20.8477 26.0782C20.7958 26.1137 20.7032 26.1559 20.5819 26.1932C20.3999 26.2501 20.1534 26.2994 19.8671 26.3332C19.5803 26.3674 19.2533 26.3869 18.9062 26.3869Z" fill="#F9B233"/>
</g>
</g>
</svg>
