<svg width="55" height="53" viewBox="0 0 55 53" fill="none" xmlns="http://www.w3.org/2000/svg">
<g id="Oskin6">
<g id="Group">
<path id="Vector" d="M24.8233 4.9059L27.2396 3.29361L21.8425 24.326L19.5759 23.7957L24.8233 4.9059Z" fill="#FFEF99"/>
<path id="Vector_2" d="M27.2396 3.29356L21.8425 24.326L23.1597 24.001L28.1761 5.6842L27.2396 3.29356Z" fill="#EBD156"/>
</g>
<g id="Group_2">
<path id="Vector_3" d="M46.0397 16.7349L48.8451 15.978L36.9989 34.1793L35.0231 32.9562L46.0397 16.7349Z" fill="#FFEF99"/>
<path id="Vector_4" d="M48.8451 15.978L36.9988 34.1793L38.3503 34.2948L48.9648 18.5482L48.8451 15.978Z" fill="#EBD156"/>
</g>
<g id="Group_3">
<path id="Vector_5" d="M28.3943 5.25667L30.8106 3.64438L25.4135 24.6768L23.1469 24.1508L28.3943 5.25667Z" fill="#FFEF99"/>
<path id="Vector_6" d="M30.8106 3.6443L25.4135 24.6767L26.7307 24.3517L31.7472 6.03921L30.8106 3.6443Z" fill="#EBD156"/>
</g>
<g id="Group_4">
<path id="Vector_7" d="M20.7733 3.23393L22.98 1.34366L20.1489 22.8722L17.8353 22.6199L20.7733 3.23393Z" fill="#FFEF99"/>
<path id="Vector_8" d="M22.9801 1.34346L20.1489 22.872L21.4148 22.393L24.1946 3.60579L22.9801 1.34346Z" fill="#EBD156"/>
</g>
<g id="Group_5">
<path id="Vector_9" d="M31.8712 5.86371L34.1506 4.06325L30.4428 25.4592L28.1419 25.1128L31.8712 5.86371Z" fill="#FFEF99"/>
<path id="Vector_10" d="M34.1506 4.06332L30.4427 25.4593L31.73 25.0316L35.2711 6.37698L34.1506 4.06332Z" fill="#EBD156"/>
</g>
<g id="Group_6">
<path id="Vector_11" d="M42.0196 8.31018L44.5471 6.88179L37.6061 27.4566L35.3865 26.7595L42.0196 8.31018Z" fill="#FFEF99"/>
<path id="Vector_12" d="M44.5471 6.88173L37.6061 27.4566L38.9447 27.2299L45.304 9.33651L44.5471 6.88173Z" fill="#EBD156"/>
</g>
<g id="Group_7">
<path id="Vector_13" d="M46.9334 10.3072L49.8116 9.90945L35.7886 26.4899L33.9796 25.023L46.9334 10.3072Z" fill="#FFEF99"/>
<path id="Vector_14" d="M49.8116 9.90945L35.7885 26.4899L37.1143 26.7679L49.6106 12.4712L49.8116 9.90945Z" fill="#EBD156"/>
</g>
<g id="Group_8">
<path id="Vector_15" d="M36.0751 3.7938L38.7352 2.63055L29.7243 22.3843L27.586 21.4691L36.0751 3.7938Z" fill="#FFEF99"/>
<path id="Vector_16" d="M38.7352 2.63062L29.7243 22.3843L31.0757 22.2945L39.2355 5.14955L38.7352 2.63062Z" fill="#EBD156"/>
</g>
<g id="Group_9">
<path id="Vector_17" d="M41.2284 4.56791L44.0082 3.72969L32.7179 22.2774L30.7036 21.1099L41.2284 4.56791Z" fill="#FFEF99"/>
<path id="Vector_18" d="M44.0082 3.72981L32.7179 22.2775L34.0736 22.346L44.2049 6.29151L44.0082 3.72981Z" fill="#EBD156"/>
</g>
<g id="Group_10">
<path id="Vector_19" d="M38.0124 7.24504L40.557 5.84659L33.3637 26.3359L31.1527 25.6131L38.0124 7.24504Z" fill="#FFEF99"/>
<path id="Vector_20" d="M40.557 5.84666L33.3637 26.336L34.7065 26.1221L41.284 8.31L40.557 5.84666Z" fill="#EBD156"/>
</g>
<path id="Vector_21" d="M18.789 9.83273L8.53793 40.6843C8.53793 40.6843 20.5168 49.5882 29.4121 50.9781L46.8265 22.3932C46.8265 22.3932 33.7828 13.2626 18.789 9.83273Z" fill="#F85551"/>
</g>
</svg>
