<svg width="165" height="128" viewBox="0 0 165 128" fill="none" xmlns="http://www.w3.org/2000/svg">
<g id="Layer" clip-path="url(#clip0_23_5094)">
<path id="Vector" d="M129.525 53.963L94.2152 21.4867L89.1639 6.09446C87.6336 1.44559 82.6316 -1.08419 77.9752 0.443535C73.3187 1.97126 70.7848 6.9651 72.315 11.614L78.0904 29.2074C78.5675 30.653 79.3902 31.9343 80.5091 32.9692L86.8932 38.8337L47.3051 75.8932C47.1076 76.0575 46.9266 76.2218 46.7456 76.4189L36.2974 87.4086C33.7635 90.0863 33.8786 94.2916 36.5442 96.8214C37.8276 98.037 39.4894 98.6448 41.1348 98.6448C42.8954 98.6448 44.6724 97.9548 45.9723 96.575L51.0072 91.5811L47.2063 96.1807C44.7053 99.2033 45.1331 103.688 48.1771 106.185C49.5099 107.269 51.1059 107.811 52.7019 107.811C53.9689 107.811 55.2194 107.483 56.3218 106.825C54.7916 109.52 55.17 113.002 57.4571 115.318C58.8557 116.731 60.6821 117.437 62.5249 117.437C63.9235 117.437 65.4702 117.109 66.7371 116.32C64.4171 119.08 64.5323 123.203 67.0991 125.832C68.4977 127.261 70.3406 127.984 72.1999 127.984C74.0591 127.984 75.7868 127.31 77.1689 125.963L84.2606 119.08C84.2606 119.08 84.3922 118.949 84.4416 118.899L88.0121 122.924L120.871 89.0349L121.117 89.4949H164.079V53.9466H129.542L129.525 53.963Z" fill="#F9B256"/>
<path id="Vector_2" d="M128.571 92.1068L122.664 84.1725C120.328 81.0185 115.869 80.3614 112.709 82.7105C110.867 84.0739 109.879 86.1602 109.83 88.2793C107.642 86.2916 104.351 85.7988 101.619 87.2936C98.1641 89.1827 96.8971 93.5031 98.7893 96.9363L103.693 105.889L97.3908 96.9692C95.1201 93.7659 90.6776 92.9938 87.469 95.2608C84.2605 97.5277 83.4872 101.963 85.7578 105.166L89.46 110.423L86.0211 106.3C83.6682 103.474 79.456 103.08 76.6259 105.429C73.7958 107.778 73.4009 111.984 75.7538 114.809L82.6316 123.072C83.9479 124.665 85.8566 125.47 87.7652 125.47C89.2625 125.47 90.7763 124.961 92.0268 123.926C94.0835 122.218 94.8568 119.54 94.2151 117.109C95.6137 118.768 97.6376 119.671 99.6779 119.671C101.093 119.671 102.524 119.244 103.775 118.374C106.309 116.6 107.312 113.462 106.523 110.653C107.888 112.115 109.797 112.936 111.755 112.936C112.907 112.936 114.075 112.657 115.161 112.066C118.616 110.177 119.883 105.856 117.991 102.423L116.675 100.025L117.119 100.616C118.518 102.489 120.673 103.491 122.845 103.491C124.326 103.491 125.807 103.031 127.09 102.094C130.249 99.7618 130.907 95.2936 128.554 92.156L128.571 92.1068Z" fill="#FBD099"/>
<path id="Vector_3" d="M99.9412 38.0616L74.9148 23.0308C71.2785 20.846 66.5891 21.8809 64.2033 25.3306C63.5451 25.8398 62.9363 26.4312 62.3933 27.1211L41.1348 53.9795H3.15918V89.5277H34.9317C35.195 88.2135 41.5297 82.0205 42.0727 81.3306L80.4104 45.0103L86.1364 48.4435L81.7432 61.3224C80.3117 65.4949 82.5494 70.0452 86.7451 71.4743C87.6008 71.77 88.4728 71.9014 89.3284 71.9014C92.6686 71.9014 95.7784 69.8152 96.9137 66.4805L103.397 47.4907C104.614 43.9261 103.183 40 99.9412 38.0616Z" fill="#FBD099"/>
<g id="Group">
<path id="Vector_4" d="M26.5896 51.2033H0V93.7331H26.5896V51.2033Z" fill="#E6E9F9"/>
<path id="Vector_5" d="M24.2366 86.2916C24.2366 84.3696 22.6735 82.8255 20.7649 82.8255C18.8562 82.8255 17.2931 84.386 17.2931 86.2916C17.2931 88.1971 18.8562 89.7577 20.7649 89.7577C22.6735 89.7577 24.2366 88.1971 24.2366 86.2916ZM20.913 85.5031C20.913 85.1745 21.1762 84.9281 21.4888 84.9281C21.8015 84.9281 22.0647 85.191 22.0647 85.5031C22.0647 85.8152 21.8015 86.078 21.4888 86.078C21.1762 86.078 20.913 85.8152 20.913 85.5031ZM19.4486 87.0965C19.4486 86.768 19.7118 86.5216 20.0244 86.5216C20.3371 86.5216 20.6003 86.7844 20.6003 87.0965C20.6003 87.4086 20.3371 87.6715 20.0244 87.6715C19.7118 87.6715 19.4486 87.4086 19.4486 87.0965Z" fill="#868686"/>
<path id="Vector_6" d="M15.4831 48.0657H0V102.439H15.4831V48.0657Z" fill="#223946"/>
</g>
<g id="Group_2">
<path id="Vector_7" d="M165 52.5175H138.41V95.0637H165V52.5175Z" fill="#E6E9F9"/>
<path id="Vector_8" d="M165 49.3799H149.517V103.754H165V49.3799Z" fill="#223946"/>
</g>
</g>
<defs>
<clipPath id="clip0_23_5094">
<rect width="165" height="128" fill="white"/>
</clipPath>
</defs>
</svg>
