<svg width="35" height="27" viewBox="0 0 35 27" fill="none" xmlns="http://www.w3.org/2000/svg">
<g id="Capa_1" clip-path="url(#clip0_23_4753)">
<path id="Vector" d="M31.465 20.9862L30.9962 19.3483C30.5679 17.8463 30.7218 15.5772 31.3624 13.9536C31.7859 12.8799 31.9148 11.6965 31.7358 10.5309C31.329 7.87537 29.2878 5.7125 26.6561 5.14941C24.8523 4.7605 23.0175 5.13868 21.5144 6.19208H13.4844C11.9813 5.13987 10.1465 4.7617 8.34268 5.14941C5.71097 5.7125 3.66978 7.87537 3.26298 10.5309C3.08522 11.6965 3.21287 12.8799 3.63638 13.9536C4.27701 15.5772 4.4309 17.8451 4.00262 19.3471L3.53378 20.9862C3.29996 21.8106 3.18185 22.6612 3.18424 23.5165C3.18782 24.4888 3.99069 25.2798 4.97371 25.2798H7.32507C8.29854 25.2798 9.19805 24.7513 9.68359 23.8768L12.5658 18.1219H22.433L25.3283 23.8983C25.8019 24.7513 26.7014 25.2798 27.6749 25.2798H30.0263C31.0093 25.2798 31.8122 24.4888 31.8157 23.5153C31.8181 22.6612 31.7 21.8106 31.465 20.9862ZM13.3246 13.35H11.5351V15.1394C11.5351 15.4687 11.2679 15.7359 10.9386 15.7359H8.55265C8.22338 15.7359 7.95616 15.4687 7.95616 15.1394V13.35H6.16669C5.83743 13.35 5.5702 13.0827 5.5702 12.7535V10.3675C5.5702 10.0382 5.83743 9.77102 6.16669 9.77102H7.95616V7.98155C7.95616 7.65229 8.22338 7.38506 8.55265 7.38506H10.9386C11.2679 7.38506 11.5351 7.65229 11.5351 7.98155V9.77102H13.3246C13.6538 9.77102 13.9211 10.0382 13.9211 10.3675V12.7535C13.9211 13.0827 13.6538 13.35 13.3246 13.35ZM15.7105 15.7359H14.5175C14.1883 15.7359 13.9211 15.4687 13.9211 15.1394C13.9211 14.8102 14.1883 14.5429 14.5175 14.5429H15.7105C16.0398 14.5429 16.307 14.8102 16.307 15.1394C16.307 15.4687 16.0398 15.7359 15.7105 15.7359ZM20.4824 15.7359H19.2895C18.9602 15.7359 18.693 15.4687 18.693 15.1394C18.693 14.8102 18.9602 14.5429 19.2895 14.5429H20.4824C20.8117 14.5429 21.0789 14.8102 21.0789 15.1394C21.0789 15.4687 20.8117 15.7359 20.4824 15.7359ZM27.6403 13.35C27.3564 13.35 27.0915 13.2772 26.8541 13.1603C26.9711 13.3977 27.0438 13.6625 27.0438 13.9464C27.0438 14.933 26.241 15.7359 25.2544 15.7359C24.2678 15.7359 23.4649 14.933 23.4649 13.9464C23.4649 13.6625 23.5377 13.3977 23.6546 13.1603C23.4172 13.2772 23.1523 13.35 22.8684 13.35C21.8818 13.35 21.0789 12.5471 21.0789 11.5605C21.0789 10.5739 21.8818 9.77102 22.8684 9.77102C23.1523 9.77102 23.4172 9.84379 23.6546 9.9607C23.5377 9.7233 23.4649 9.45846 23.4649 9.17453C23.4649 8.18793 24.2678 7.38506 25.2544 7.38506C26.241 7.38506 27.0438 8.18793 27.0438 9.17453C27.0438 9.45846 26.9711 9.7233 26.8541 9.9607C27.0915 9.84379 27.3564 9.77102 27.6403 9.77102C28.6269 9.77102 29.4298 10.5739 29.4298 11.5605C29.4298 12.5471 28.6269 13.35 27.6403 13.35Z" fill="black" fill-opacity="0.6"/>
<path id="Vector_2" d="M33.9843 16.9384C33.7019 15.731 33.37 14.658 33.1699 13.9828C33.0213 13.481 32.8308 12.9866 32.6674 12.4933C32.504 12.0005 32.3682 11.5104 32.3222 11.0224L32.3171 10.9691C32.5341 10.312 32.6536 9.60805 32.6536 8.87421C32.6536 6.80921 31.7192 4.97301 30.2686 3.79866C29.8866 2.42537 28.6739 1.42114 27.2355 1.42114H25.7798C24.3419 1.42114 23.1287 2.42537 22.7463 3.79812C22.4777 4.01572 22.2265 4.25517 21.9962 4.5149H13.0033C12.7271 4.20291 12.4212 3.92079 12.0908 3.67119C11.6711 2.36351 10.4896 1.42114 9.09612 1.42114H7.64037C6.15654 1.42114 4.91269 2.48937 4.57263 3.92985C3.21287 5.10741 2.34637 6.88494 2.34586 8.87474C2.34586 9.60858 2.46534 10.3126 2.68235 10.9696L2.67724 11.0229C2.63129 11.5109 2.49546 12.001 2.33207 12.4938C2.16918 12.9866 1.97822 13.4815 1.82963 13.9834C1.62947 14.6585 1.29757 15.7316 1.01521 16.939C0.733859 18.1469 0.5 19.4898 0.5 20.7202C0.500511 21.6833 0.64195 22.5814 1.03665 23.2924C1.23375 23.647 1.49671 23.9531 1.83269 24.1862C2.16867 24.4192 2.57512 24.5776 3.0556 24.6475C3.22615 24.6726 3.39363 24.6843 3.55855 24.6843C4.34489 24.6843 5.05975 24.4096 5.70312 23.9745C6.66919 23.3206 7.48668 22.31 8.21328 21.2706C8.93834 20.2322 9.57201 19.1608 10.1444 18.3907C10.1516 18.3811 10.1597 18.3704 10.1689 18.3581C10.6688 18.6387 11.2402 18.7981 11.8478 18.7981C13.5849 18.7981 15.0299 17.4952 15.3383 15.7742H19.6627C19.9711 17.4947 21.4161 18.7976 23.1532 18.7981C23.7608 18.7981 24.3322 18.6387 24.8321 18.3581C24.8408 18.3699 24.85 18.3816 24.8566 18.3907C25.2375 18.9037 25.6475 19.5517 26.0923 20.2338C26.7602 21.2572 27.5067 22.3585 28.3793 23.214C28.8159 23.6411 29.2846 24.0081 29.7942 24.2689C30.3033 24.5302 30.8537 24.6843 31.4425 24.6843C31.6074 24.6843 31.7749 24.6726 31.9454 24.6475C32.4254 24.5771 32.8323 24.4192 33.1678 24.1862C33.6723 23.8369 34.0088 23.3233 34.2141 22.726C34.4198 22.1281 34.5005 21.4428 34.5005 20.7202C34.5005 19.4898 34.2666 18.1469 33.9848 16.939L33.9843 16.9384Z" fill="#3C3C3B"/>
<g id="Group">
<path id="Vector_3" d="M11.4832 3.26589C11.3632 3.0515 11.2182 2.8547 11.0508 2.67978C10.5498 2.15713 9.86001 1.83447 9.09614 1.83447H7.64038C6.87651 1.83447 6.18668 2.15766 5.68577 2.67978C5.46008 2.9155 5.27371 3.19229 5.13635 3.49788C6.10141 2.83924 7.25385 2.45472 8.4931 2.45472C9.57866 2.45472 10.5978 2.74964 11.4832 3.26589Z" fill="#C5BEC0"/>
<path id="Vector_4" d="M29.6814 3.37633C29.5512 3.11874 29.3852 2.88408 29.1902 2.67929C28.6893 2.15664 27.9994 1.83398 27.2356 1.83398H25.7798C25.0159 1.83398 24.3261 2.15717 23.8252 2.67929C23.6296 2.88355 23.4642 3.1182 23.334 3.37526C24.2602 2.79075 25.3463 2.45423 26.5074 2.45423C27.6686 2.45423 28.7556 2.79075 29.6819 3.37633H29.6814Z" fill="#C5BEC0"/>
<path id="Vector_5" d="M8.30062 15.2895C5.95641 15.2137 3.94307 13.769 2.97036 11.6938C2.90092 12.0117 2.80748 12.3226 2.70638 12.6282C2.5389 13.1338 2.34997 13.625 2.20802 14.1044C2.00684 14.7839 1.67852 15.8457 1.40024 17.0361C1.12195 18.2259 0.895242 19.5437 0.895753 20.7197C0.895753 21.4103 0.973876 22.0508 1.15872 22.5857C1.34407 23.1217 1.63001 23.5489 2.05177 23.8422C2.33414 24.0379 2.68034 24.1755 3.11078 24.2385C3.26345 24.2609 3.41255 24.2715 3.55858 24.2715C4.08145 24.2715 4.56908 24.1361 5.03323 23.8982C5.49686 23.6609 5.93599 23.3201 6.35162 22.9126C7.18341 22.0988 7.91868 21.0199 8.58248 20.0013C9.02467 19.3229 9.43571 18.6728 9.8299 18.1405C8.95267 17.507 8.36138 16.4718 8.30062 15.2889V15.2895ZM2.66604 15.2825C2.59404 15.5172 2.49396 15.8532 2.38214 16.2579C2.32699 16.4606 2.26878 16.6803 2.21006 16.9129C2.15032 17.1454 2.0962 17.3923 2.03748 17.6472C2.01093 17.7752 1.98437 17.9054 1.9568 18.0371C1.93382 18.1693 1.90574 18.3021 1.88276 18.4376C1.85927 18.5725 1.83476 18.7085 1.81689 18.8456C1.79545 18.9827 1.7786 19.1202 1.76379 19.2584C1.72805 19.5341 1.70762 19.8104 1.69384 20.0823C1.69179 20.2183 1.68669 20.3538 1.68567 20.4866C1.69026 20.6194 1.68516 20.7522 1.69639 20.8802C1.70456 21.0092 1.71222 21.1362 1.72856 21.2588C1.7352 21.3207 1.74234 21.3815 1.74898 21.4418C1.75919 21.5015 1.76941 21.5602 1.77962 21.6183C1.79034 21.6764 1.79902 21.734 1.81128 21.79C1.82506 21.8455 1.83885 21.8999 1.85213 21.9537C1.87459 22.0631 1.90931 22.1639 1.94199 22.2609C1.95884 22.3095 1.97161 22.3585 1.99101 22.4033C2.01041 22.4487 2.02931 22.4924 2.04769 22.5351C2.06556 22.5788 2.08343 22.6209 2.10079 22.662C2.12173 22.7009 2.14215 22.7388 2.16156 22.775C2.20291 22.847 2.23457 22.9201 2.27644 22.9788C2.31678 23.039 2.35354 23.094 2.38725 23.1441C2.4189 23.1964 2.45567 23.2353 2.48477 23.2716C2.5149 23.3078 2.53992 23.3388 2.56034 23.3633C2.60221 23.4134 2.62417 23.4406 2.62417 23.4406C2.62417 23.4406 2.59813 23.4177 2.54962 23.3756C2.52511 23.3542 2.49498 23.3281 2.45924 23.2972C2.4235 23.2662 2.38112 23.2316 2.34231 23.1841C2.30146 23.1382 2.25653 23.0876 2.20751 23.0321C2.15543 22.9788 2.11662 22.9073 2.06505 22.838C2.04054 22.8022 2.01552 22.7654 1.98897 22.727C1.9665 22.687 1.94352 22.646 1.92004 22.6028C1.89655 22.5601 1.87255 22.5159 1.84804 22.4711C1.82353 22.4257 1.80617 22.3761 1.7837 22.3271C1.74081 22.2284 1.69588 22.1255 1.66218 22.014C1.64431 21.9585 1.62593 21.9025 1.60754 21.8449C1.59069 21.7873 1.57844 21.7276 1.56312 21.6679C1.54882 21.6076 1.53402 21.5463 1.51921 21.4844C1.50848 21.422 1.49725 21.3591 1.48602 21.2946C1.45947 21.1666 1.45028 21.0348 1.43547 20.8999C1.41045 20.6317 1.40024 20.3533 1.40687 20.0706C1.4176 19.789 1.43496 19.5026 1.46866 19.2194C1.48602 19.0776 1.50542 18.9363 1.52891 18.7965C1.54933 18.6557 1.5764 18.5176 1.60193 18.3795C1.65299 18.1043 1.71988 17.8376 1.78473 17.58C1.8511 17.323 1.92412 17.0771 1.99867 16.8457C2.07016 16.6137 2.14828 16.3982 2.2213 16.1998C2.51439 15.4062 2.78144 14.9119 2.78144 14.9119C2.78144 14.9119 2.73752 15.0457 2.66604 15.2809V15.2825Z" fill="#DBD5D7"/>
<path id="Vector_6" d="M32.7925 14.1044C32.6506 13.625 32.4617 13.1338 32.2942 12.6282C32.1926 12.3226 32.0996 12.0112 32.0302 11.6938C31.0575 13.769 29.0441 15.2137 26.6999 15.2895C26.6392 16.4723 26.0484 17.5075 25.1707 18.1411C25.7619 18.9395 26.3931 20.0066 27.1069 21.0284C27.8202 22.0513 28.6168 23.0246 29.5124 23.6283C30.1098 24.0315 30.746 24.2715 31.4425 24.2721C31.589 24.2721 31.7381 24.2614 31.8908 24.239C32.3212 24.1761 32.6674 24.0385 32.9498 23.8427C33.2317 23.647 33.4517 23.3921 33.6228 23.0849C33.9654 22.4721 34.1063 21.6418 34.1058 20.7202C34.1058 19.5442 33.8796 18.2264 33.6013 17.0366C33.3231 15.8462 32.9947 14.7844 32.7936 14.105L32.7925 14.1044ZM33.1837 20.901C33.1689 21.0354 33.1597 21.1676 33.1331 21.2956C33.1219 21.3596 33.1106 21.4231 33.0999 21.4855C33.0851 21.5474 33.0708 21.6082 33.0565 21.669C33.0412 21.7287 33.0284 21.7884 33.0121 21.846C32.9937 21.9031 32.9753 21.9596 32.9575 22.0151C32.9238 22.1265 32.8788 22.2295 32.8359 22.3281C32.814 22.3772 32.7961 22.4268 32.7716 22.4721C32.7471 22.5175 32.7231 22.5612 32.6996 22.6039C32.6761 22.6465 32.6526 22.6881 32.6307 22.7281C32.6046 22.7665 32.5791 22.8033 32.5551 22.839C32.5035 22.9084 32.4647 22.9798 32.4126 23.0332C32.3636 23.0886 32.3187 23.1393 32.2778 23.1852C32.2395 23.2326 32.1967 23.2673 32.1609 23.2982C32.1252 23.3292 32.095 23.3548 32.0705 23.3766C32.022 23.4188 31.996 23.4417 31.996 23.4417C31.996 23.4417 32.0179 23.4145 32.0598 23.3644C32.0802 23.3393 32.1058 23.3084 32.1359 23.2726C32.165 23.2358 32.2018 23.1974 32.2334 23.1452C32.2666 23.0956 32.3039 23.0401 32.3442 22.9798C32.3861 22.9212 32.4177 22.8481 32.4591 22.7761C32.4785 22.7393 32.4989 22.702 32.5199 22.663C32.5372 22.622 32.5546 22.5799 32.573 22.5361C32.5914 22.4935 32.6102 22.4492 32.6296 22.4044C32.6491 22.3596 32.6618 22.3105 32.6787 22.262C32.7113 22.1644 32.7456 22.0636 32.7685 21.9548C32.7818 21.9009 32.7956 21.8465 32.8094 21.7911C32.8216 21.7351 32.8303 21.6775 32.841 21.6194C32.8513 21.5612 32.8615 21.5026 32.8717 21.4428C32.8783 21.3826 32.885 21.3212 32.8921 21.2599C32.9084 21.1372 32.9161 21.0103 32.9243 20.8812C32.936 20.7533 32.9309 20.6205 32.935 20.4877C32.934 20.3549 32.9289 20.2194 32.9268 20.0834C32.913 19.8114 32.8926 19.5352 32.8569 19.2594C32.8421 19.1218 32.8252 18.9837 32.8038 18.8467C32.7854 18.7096 32.7609 18.5736 32.7374 18.4387C32.7149 18.3037 32.6863 18.1704 32.6633 18.0382C32.6363 17.9064 32.6092 17.7763 32.5827 17.6483C32.5245 17.3934 32.4698 17.1465 32.4101 16.9139C32.3514 16.6809 32.2932 16.4617 32.238 16.259C32.1262 15.8542 32.0261 15.5188 31.9541 15.2836C31.8821 15.0484 31.8387 14.9145 31.8387 14.9145C31.8387 14.9145 32.1058 15.4089 32.3989 16.2025C32.4719 16.4009 32.55 16.6163 32.6215 16.8483C32.6955 17.0798 32.7685 17.3256 32.8349 17.5827C32.8998 17.8403 32.9667 18.1069 33.0177 18.3821C33.0432 18.5197 33.0698 18.6584 33.0902 18.7992C33.1137 18.9389 33.1331 19.0802 33.15 19.2221C33.1837 19.5058 33.201 19.7917 33.2117 20.0733C33.2184 20.3559 33.2087 20.6343 33.1832 20.9026L33.1837 20.901Z" fill="#DBD5D7"/>
<path id="Vector_7" d="M33.9843 16.9384C33.7019 15.731 33.37 14.658 33.1699 13.9828C33.0213 13.481 32.8308 12.9866 32.6674 12.4933C32.504 12.0005 32.3682 11.5104 32.3222 11.0224L32.3171 10.9691C32.5341 10.312 32.6536 9.60805 32.6536 8.87421C32.6536 6.80921 31.7192 4.97301 30.2686 3.79866C29.8866 2.42537 28.6739 1.42114 27.2355 1.42114H25.7798C24.3419 1.42114 23.1287 2.42537 22.7463 3.79812C22.4777 4.01572 22.2265 4.25517 21.9962 4.5149H13.0033C12.7271 4.20291 12.4212 3.92079 12.0908 3.67066C11.6711 2.36351 10.4896 1.42114 9.09612 1.42114H7.64037C6.15654 1.42114 4.91269 2.48937 4.57263 3.92985C3.21287 5.10741 2.34637 6.88494 2.34586 8.87474C2.34586 9.60858 2.46534 10.3126 2.68235 10.9691L2.67724 11.0224C2.63129 11.5104 2.49546 12.0005 2.33207 12.4933C2.16918 12.9861 1.97822 13.481 1.82963 13.9828C1.62947 14.658 1.29757 15.731 1.01521 16.9384C0.733859 18.1469 0.5 19.4898 0.5 20.7202C0.500511 21.6833 0.64195 22.5814 1.03665 23.2924C1.23375 23.647 1.49671 23.9531 1.83269 24.1862C2.16867 24.4192 2.57512 24.5776 3.0556 24.6475C3.22615 24.6726 3.39363 24.6843 3.55855 24.6843C4.34489 24.6843 5.05975 24.4096 5.70312 23.9745C6.66919 23.3206 7.48668 22.31 8.21328 21.2706C8.93834 20.2322 9.57201 19.1608 10.1444 18.3907C10.1516 18.3811 10.1597 18.3704 10.1689 18.3581C10.6688 18.6387 11.2402 18.7981 11.8478 18.7981C13.5849 18.7981 15.0299 17.4952 15.3383 15.7742H19.6627C19.9711 17.4947 21.4161 18.7976 23.1532 18.7981C23.7608 18.7981 24.3322 18.6387 24.8321 18.3581C24.8408 18.3699 24.85 18.3816 24.8566 18.3907C25.2375 18.9037 25.6475 19.5517 26.0923 20.2338C26.7602 21.2572 27.5067 22.3585 28.3793 23.214C28.8159 23.6411 29.2846 24.0081 29.7942 24.2689C30.3033 24.5302 30.8537 24.6843 31.4425 24.6843C31.6074 24.6843 31.7749 24.6726 31.9454 24.6475C32.4254 24.5771 32.8323 24.4192 33.1678 24.1862C33.6723 23.8369 34.0088 23.3233 34.2141 22.726C34.4198 22.1281 34.5005 21.4428 34.5005 20.7202C34.5005 19.4898 34.2666 18.1469 33.9848 16.939L33.9843 16.9384ZM23.8247 2.67923C24.3256 2.15658 25.0154 1.83393 25.7793 1.83393H27.235C27.9989 1.83393 28.6887 2.15712 29.1896 2.67923C29.3852 2.88349 29.5512 3.11868 29.6809 3.37627C28.7541 2.79123 27.668 2.45417 26.5064 2.45417C25.3448 2.45417 24.2597 2.79069 23.333 3.37521C23.4632 3.11815 23.6286 2.88349 23.8242 2.67923H23.8247ZM5.68576 2.67923C6.18666 2.15658 6.8765 1.83393 7.64037 1.83393H9.09612C9.85999 1.83393 10.5498 2.15712 11.0507 2.67923C11.2182 2.85416 11.3632 3.05095 11.4832 3.26534C10.5978 2.74909 9.57865 2.45417 8.49309 2.45417C7.25435 2.45417 6.1019 2.83869 5.13634 3.49733C5.27369 3.19228 5.45956 2.91549 5.68576 2.67923ZM8.58194 20.0018C7.91814 21.0199 7.18287 22.0988 6.35108 22.9132C5.93544 23.3206 5.49632 23.6614 5.03269 23.8987C4.56854 24.1366 4.08091 24.272 3.55804 24.272C3.4115 24.272 3.2624 24.2614 3.11024 24.239C2.67979 24.1761 2.3336 24.0385 2.05123 23.8427C1.62896 23.5494 1.34353 23.1222 1.15818 22.5862C0.973336 22.0513 0.895212 21.4108 0.895212 20.7202C0.895212 19.5442 1.12141 18.2264 1.3997 17.0366C1.67798 15.8462 2.0063 14.7844 2.20748 14.105C2.34943 13.6255 2.53836 13.1343 2.70584 12.6287C2.80745 12.3231 2.90038 12.0117 2.96982 11.6944C3.94253 13.7695 5.95587 15.2142 8.30008 15.29C8.36084 16.4729 8.95213 17.508 9.82936 18.1416C9.43517 18.6739 9.02413 19.324 8.58194 20.0023V20.0018ZM14.0797 17.4195C13.5078 18.0168 12.7199 18.3848 11.8473 18.3848C10.9747 18.3848 10.1868 18.0163 9.6149 17.4195C9.04302 16.8222 8.69019 15.9993 8.69019 15.0878C8.69019 14.1769 9.04353 13.3535 9.6149 12.7562C10.1868 12.1594 10.9752 11.7904 11.8473 11.7904C12.7194 11.7904 13.5078 12.1589 14.0797 12.7562C14.651 13.3535 15.0044 14.1769 15.0044 15.0878C15.0044 15.9993 14.651 16.8222 14.0797 17.4195ZM19.6111 15.362H15.3889C15.395 15.2713 15.3996 15.1801 15.3996 15.0884C15.3996 13.1066 13.9122 11.4885 12.0398 11.384C11.976 11.3802 11.9116 11.3781 11.8473 11.3781C10.126 11.3781 8.69121 12.6565 8.36493 14.354C8.36391 14.3588 8.3634 14.3641 8.36237 14.3695C8.33123 14.5348 8.31029 14.7044 8.3011 14.8772C6.78867 14.8255 5.42534 14.1663 4.42608 13.1231C3.38495 12.0352 2.74158 10.5349 2.74158 8.87527C2.74158 7.2156 3.38495 5.71539 4.42608 4.62743C5.46773 3.54053 6.90407 2.86856 8.49309 2.86856C10.0821 2.86856 11.5185 3.54053 12.5601 4.62743C13.6012 5.71539 14.2446 7.2156 14.2446 8.87527H14.6398C14.6398 7.38626 14.1532 6.01724 13.3393 4.92822H21.6612C20.8473 6.01671 20.3607 7.38626 20.3607 8.87527H20.7559C20.7559 7.2156 21.3993 5.71539 22.4404 4.62743C23.4821 3.54053 24.9184 2.86856 26.5074 2.86856C28.0964 2.86856 29.5328 3.54053 30.5744 4.62743C31.6156 5.71539 32.2589 7.2156 32.2589 8.87527C32.2589 10.5349 31.6156 12.0352 30.5744 13.1231C29.5752 14.1663 28.2118 14.8255 26.6994 14.8772C26.5942 12.9263 25.0471 11.3786 23.1532 11.3786C23.0889 11.3786 23.0245 11.3808 22.9607 11.3845C21.0883 11.489 19.6014 13.1071 19.6009 15.0889C19.6009 15.1812 19.605 15.2724 19.6116 15.3625L19.6111 15.362ZM23.1527 18.3853C22.2806 18.3853 21.4922 18.0168 20.9203 17.42C20.3484 16.8227 19.9956 15.9998 19.9956 15.0884C19.9956 14.1775 20.3489 13.354 20.9203 12.7567C21.4922 12.16 22.2801 11.7909 23.1527 11.7909C24.0253 11.7909 24.8132 12.1594 25.3851 12.7567C25.9565 13.354 26.3098 14.1775 26.3098 15.0884C26.3098 15.9998 25.9565 16.8227 25.3851 17.42C24.8132 18.0173 24.0248 18.3853 23.1527 18.3853ZM33.6217 23.0849C33.4507 23.3921 33.2306 23.6465 32.9488 23.8427C32.6664 24.0385 32.3202 24.1761 31.8898 24.239C31.7371 24.2614 31.588 24.272 31.4414 24.272C30.745 24.272 30.1087 24.0315 29.5113 23.6283C28.6157 23.0246 27.8197 22.0513 27.1059 21.0284C26.392 20.0066 25.7614 18.9394 25.1696 18.1411C26.0468 17.5075 26.6381 16.4723 26.6989 15.2894C29.0431 15.2137 31.0559 13.769 32.0292 11.6938C32.0986 12.0117 32.192 12.3226 32.2931 12.6282C32.4606 13.1338 32.6495 13.625 32.7915 14.1044C32.9927 14.7839 33.321 15.8457 33.5993 17.036C33.8776 18.2259 34.1038 19.5437 34.1038 20.7196C34.1043 21.6412 33.9633 22.4716 33.6207 23.0844L33.6217 23.0849Z" fill="#3C3C3B"/>
<path id="Vector_8" d="M22.9602 11.3834C23.0241 11.3797 23.0884 11.3775 23.1527 11.3775C25.0466 11.3775 26.5942 12.9257 26.6989 14.8761C28.2113 14.8243 29.5747 14.1652 30.5739 13.122C31.6151 12.034 32.2584 10.5338 32.2584 8.87415C32.2584 7.21447 31.6151 5.71426 30.5739 4.6263C29.5323 3.53941 28.096 2.86743 26.5069 2.86743C24.9179 2.86743 23.4816 3.53941 22.4399 4.6263C21.3988 5.71426 20.7554 7.21447 20.7554 8.87415H20.3602C20.3602 7.38513 20.8468 6.01612 21.6607 4.92709H13.3388C14.1527 6.01558 14.6393 7.38513 14.6393 8.87415H14.2441C14.2441 7.21447 13.6007 5.71426 12.5596 4.6263C11.518 3.53941 10.0816 2.86743 8.4926 2.86743C6.90358 2.86743 5.46724 3.53941 4.42559 4.6263C3.38446 5.71426 2.74109 7.21447 2.74109 8.87415C2.74109 10.5338 3.38446 12.034 4.42559 13.122C5.42486 14.1652 6.78819 14.8243 8.30061 14.8761C8.3098 14.7033 8.33074 14.5342 8.36189 14.3683C8.34504 14.3683 8.32716 14.3683 8.30674 14.3683C8.24649 14.3689 8.17143 14.3694 8.0836 14.3699C8.03969 14.3699 7.9922 14.3721 7.94216 14.3699C7.89161 14.3646 7.838 14.3587 7.78183 14.3523C7.66848 14.339 7.54185 14.3278 7.40449 14.3092C7.26969 14.2793 7.12366 14.2468 6.96792 14.2116C6.88878 14.1977 6.8127 14.1636 6.731 14.139C6.64981 14.1118 6.56658 14.0836 6.48131 14.0548C6.39399 14.0302 6.31281 13.9838 6.22549 13.9454C6.1392 13.9054 6.05086 13.8644 5.95998 13.8222C5.87113 13.7769 5.78535 13.7209 5.69497 13.6692C5.65004 13.6425 5.60459 13.6158 5.55915 13.5886C5.51319 13.562 5.46673 13.5348 5.42435 13.5006C5.25125 13.37 5.06283 13.2457 4.89637 13.082C4.54201 12.7812 4.22492 12.3946 3.94102 11.9663C3.87464 11.8554 3.80775 11.7439 3.74035 11.6314C3.67448 11.5183 3.62393 11.3946 3.56419 11.2757C3.5356 11.2154 3.507 11.1546 3.4779 11.0938L3.40795 10.9039C3.36352 10.7759 3.31246 10.649 3.27519 10.5173C3.12149 9.98984 3.05001 9.43199 3.03571 8.87308L3.05665 8.4587C3.06226 8.39043 3.0592 8.3259 3.07145 8.25497L3.1026 8.04431L3.13426 7.83472L3.15009 7.73019L3.1746 7.62939C3.2083 7.49553 3.24149 7.36167 3.27519 7.22834C3.31195 7.09661 3.36403 6.97022 3.40744 6.84169L3.47739 6.65183C3.50649 6.59103 3.53509 6.53077 3.56368 6.4705C3.62291 6.35051 3.67346 6.22731 3.73984 6.11425C3.80724 6.00225 3.87413 5.89026 3.94051 5.77933C4.22492 5.35107 4.5415 4.96442 4.89586 4.6631C5.06181 4.49991 5.25125 4.37564 5.42384 4.24498C5.46673 4.21138 5.51268 4.18418 5.55915 4.15752C5.60459 4.12979 5.65004 4.10312 5.69497 4.07645C5.78535 4.02472 5.87113 3.96872 5.95998 3.92339C6.05035 3.88126 6.13869 3.8402 6.22549 3.8002C6.31281 3.7618 6.39399 3.7154 6.48131 3.69087C6.56709 3.66207 6.65032 3.6338 6.731 3.6066C6.8127 3.58207 6.88878 3.54741 6.96792 3.53407C7.12366 3.49941 7.26969 3.46688 7.40449 3.43648C7.54083 3.41835 7.66746 3.40715 7.7803 3.39381C7.83698 3.38741 7.89059 3.38208 7.94063 3.37621C7.99118 3.37408 8.03867 3.37621 8.08309 3.37621C8.17143 3.37675 8.24649 3.37728 8.30725 3.37781C8.42827 3.37835 8.49311 3.37941 8.49311 3.37941C8.49311 3.37941 8.42878 3.38635 8.30827 3.40021C8.24802 3.40715 8.17398 3.41515 8.08718 3.42528C8.04378 3.43061 7.9968 3.43434 7.94727 3.44234C7.89825 3.45301 7.84617 3.46368 7.79102 3.47541C7.68124 3.49941 7.55921 3.52287 7.42798 3.55381C7.29931 3.59487 7.15991 3.6386 7.01081 3.68554C6.93524 3.70527 6.86376 3.74473 6.78716 3.77513C6.71108 3.80766 6.63296 3.84126 6.55279 3.87593C6.4711 3.90633 6.39502 3.95593 6.31383 3.99806C6.23315 4.04179 6.15094 4.08659 6.0672 4.13245C5.985 4.18098 5.90585 4.24072 5.82262 4.29511C5.78126 4.32338 5.7399 4.35164 5.69803 4.37991C5.65565 4.40818 5.61327 4.43644 5.57447 4.47164C5.41771 4.6071 5.24257 4.72976 5.09245 4.89349C5.01535 4.97242 4.93263 5.04655 4.85757 5.13188C4.78557 5.21881 4.71204 5.30734 4.63801 5.39641C4.56039 5.48227 4.4981 5.58253 4.42968 5.6796C4.39598 5.72813 4.36228 5.77666 4.32807 5.82572L4.27649 5.89932L4.23207 5.97772C3.97574 6.3889 3.79141 6.85875 3.64027 7.34407C3.61066 7.4678 3.58053 7.59206 3.55041 7.71686L3.52794 7.81072L3.51466 7.90458L3.48811 8.09284L3.46054 8.2811C3.44931 8.34243 3.45237 8.4139 3.44726 8.48003L3.4299 8.87361C3.44011 9.39253 3.50139 9.91091 3.63976 10.4026C3.79039 10.8885 3.97523 11.3578 4.23105 11.769C4.48993 12.1743 4.76821 12.5545 5.09194 12.8537C5.24206 13.0169 5.4172 13.1396 5.57395 13.2756C5.61276 13.3103 5.65514 13.3391 5.69752 13.3673C5.73939 13.3956 5.78075 13.4238 5.82211 13.4521C5.90534 13.507 5.98397 13.5662 6.06618 13.6148C6.15043 13.6606 6.23264 13.7054 6.31332 13.7492C6.39451 13.7913 6.47059 13.8409 6.55228 13.8713C6.63245 13.906 6.71057 13.9396 6.78665 13.9721C6.86325 14.0025 6.93524 14.0425 7.0103 14.0617C7.15889 14.1086 7.29829 14.1529 7.42696 14.1934C7.55768 14.2249 7.6792 14.2478 7.78847 14.2718C7.84362 14.283 7.8957 14.2942 7.94472 14.3049C7.99425 14.3129 8.04173 14.3166 8.08514 14.3219C8.17245 14.3321 8.247 14.3401 8.30725 14.347C8.32768 14.3491 8.34657 14.3513 8.36393 14.3534C8.69021 12.6559 10.125 11.3775 11.8463 11.3775C11.9106 11.3775 11.975 11.3797 12.0388 11.3834C13.9112 11.4879 15.3981 13.106 15.3986 15.0878C15.3986 15.1801 15.3945 15.2712 15.3879 15.3614H19.6101C19.604 15.2707 19.5994 15.1795 19.5994 15.0878C19.5994 13.106 21.0868 11.4879 22.9592 11.3834H22.9602Z" fill="#C5BEC0"/>
<path id="Vector_9" d="M26.5069 12.1109C25.8641 12.1109 25.3433 11.5664 25.3433 10.8955C25.3433 10.2246 25.8641 9.68005 26.5069 9.68005C27.1498 9.68005 27.6706 10.224 27.6706 10.8955C27.6706 11.5669 27.1498 12.1109 26.5069 12.1109Z" fill="#C5BEC0"/>
<path id="Vector_10" d="M29.6058 8.87416C29.6058 9.5456 29.085 10.0896 28.4421 10.0901C27.7993 10.0901 27.2784 9.54614 27.2784 8.87416C27.2784 8.20272 27.7993 7.6582 28.4421 7.6582C29.085 7.6582 29.6058 8.20218 29.6058 8.87416Z" fill="#C5BEC0"/>
<path id="Vector_11" d="M26.5069 5.63806C27.1498 5.63806 27.6706 6.18258 27.6706 6.85348C27.6706 7.52439 27.1498 8.06944 26.5069 8.06944C25.8641 8.06944 25.3433 7.52546 25.3433 6.85348C25.3433 6.18151 25.8641 5.63806 26.5069 5.63806Z" fill="#C5BEC0"/>
<path id="Vector_12" d="M24.5723 7.65881C25.2151 7.65881 25.7359 8.20279 25.7364 8.87477C25.7364 9.54621 25.2151 10.0902 24.5723 10.0907C23.9294 10.0907 23.4086 9.54674 23.4086 8.87477C23.4086 8.20333 23.9299 7.65881 24.5723 7.65881Z" fill="#C5BEC0"/>
<path id="Vector_13" d="M7.33655 6.83796C7.33655 6.17079 7.8538 5.63 8.49257 5.63C9.13134 5.63 9.64859 6.17079 9.64859 6.83796V7.54834C9.64859 8.21551 7.33655 8.21551 7.33655 7.54834V6.83796Z" fill="#C5BEC0"/>
<path id="Vector_14" d="M6.54311 10.0822C5.90484 10.0822 5.38708 9.54196 5.38708 8.87478C5.38708 8.20761 5.90484 7.66736 6.54311 7.66736H7.22324C7.8615 7.66736 7.8615 10.0822 7.22324 10.0822H6.54311Z" fill="#C5BEC0"/>
<path id="Vector_15" d="M9.64908 10.911C9.64908 11.5781 9.13183 12.1189 8.49306 12.1189C7.85428 12.1189 7.33704 11.5781 7.33704 10.911V10.2006C7.33704 9.5334 9.64908 9.5334 9.64908 10.2006V10.911Z" fill="#C5BEC0"/>
<path id="Vector_16" d="M10.4426 10.0822H9.76251C9.12425 10.0822 9.12425 7.66736 9.76251 7.66736H10.4426C11.0814 7.66736 11.5992 8.20761 11.5992 8.87478C11.5992 9.54196 11.0814 10.0822 10.4426 10.0822Z" fill="#C5BEC0"/>
<path id="Vector_17" d="M16.837 10.4491H15.1857V11.3696H16.837V10.4491Z" fill="#C5BEC0"/>
<path id="Vector_18" d="M19.8144 10.4491H18.1631V11.3696H19.8144V10.4491Z" fill="#C5BEC0"/>
<path id="Vector_19" d="M8.08617 14.3221C8.04277 14.3167 7.99528 14.313 7.94575 14.305C7.89673 14.2943 7.84465 14.2837 7.7895 14.2719C7.67972 14.2479 7.5582 14.225 7.42799 14.1935C7.29932 14.153 7.15992 14.1087 7.01133 14.0618C6.93576 14.0426 6.86428 14.0026 6.78769 13.9722C6.7116 13.9397 6.63348 13.9061 6.55332 13.8714C6.47213 13.841 6.39554 13.7909 6.31435 13.7493C6.23367 13.7055 6.15146 13.6607 6.06721 13.6149C5.98501 13.5664 5.90586 13.5072 5.82314 13.4522C5.78178 13.424 5.74042 13.3957 5.69855 13.3674C5.65617 13.3392 5.61379 13.3104 5.57499 13.2757C5.41823 13.1397 5.24309 13.0176 5.09297 12.8538C4.76924 12.5547 4.49096 12.1744 4.23208 11.7691C3.97627 11.3584 3.79142 10.8886 3.64079 10.4027C3.50242 9.91155 3.44115 9.39264 3.43093 8.87372L3.4483 8.48014C3.45289 8.41401 3.45034 8.34254 3.46157 8.28121L3.48914 8.09295L3.5157 7.90469L3.52897 7.81083L3.55144 7.71696C3.58156 7.59217 3.61169 7.46791 3.64131 7.34418C3.79245 6.85886 3.97678 6.38901 4.2331 5.97783L4.27753 5.89943L4.3291 5.82583C4.36331 5.77677 4.39701 5.7277 4.43071 5.6797C4.49913 5.58317 4.56142 5.48291 4.63904 5.39651C4.71308 5.30745 4.7866 5.21945 4.8586 5.13199C4.93366 5.04666 5.01638 4.97253 5.09348 4.8936C5.2436 4.72987 5.41874 4.60774 5.5755 4.47175C5.6143 4.43655 5.65668 4.40828 5.69906 4.38002C5.74093 4.35175 5.78229 4.32295 5.82365 4.29522C5.90688 4.24082 5.98552 4.18109 6.06824 4.13256C6.15249 4.0867 6.23469 4.0419 6.31486 3.99817C6.39605 3.95603 6.47213 3.90644 6.55383 3.87604C6.63399 3.84137 6.71212 3.80777 6.7882 3.77524C6.86479 3.74484 6.93678 3.70484 7.01184 3.68564C7.16043 3.63871 7.29983 3.59445 7.42901 3.55392C7.56024 3.52298 7.68227 3.49952 7.79206 3.47552C7.8472 3.46378 7.89928 3.45312 7.9483 3.44245C7.99783 3.43499 8.04481 3.43125 8.08821 3.42539C8.17501 3.41525 8.24905 3.40725 8.3093 3.40032C8.42981 3.38645 8.49414 3.37952 8.49414 3.37952C8.49414 3.37952 8.4293 3.37899 8.30828 3.37792C8.24752 3.37792 8.17246 3.37685 8.08412 3.37632C8.0397 3.37632 7.99222 3.37472 7.94166 3.37632C7.89162 3.38219 7.83801 3.38752 7.78133 3.39392C7.66849 3.40725 7.54237 3.41845 7.40552 3.43659C7.27072 3.46698 7.12469 3.49952 6.96895 3.53418C6.88981 3.54805 6.81373 3.58218 6.73203 3.60671C6.65084 3.63391 6.56761 3.66218 6.48234 3.69098C6.39503 3.71551 6.31384 3.76191 6.22652 3.80031C6.13972 3.8403 6.05139 3.88137 5.96101 3.9235C5.87216 3.96883 5.78638 4.0243 5.696 4.07656C5.65107 4.10323 5.60562 4.12989 5.56018 4.15763C5.51422 4.18429 5.46776 4.21149 5.42487 4.24509C5.25228 4.37629 5.06335 4.50001 4.8969 4.66321C4.54202 4.96453 4.22544 5.35065 3.94154 5.77943C3.87517 5.89036 3.80828 6.00183 3.74087 6.11436C3.6745 6.22742 3.62446 6.35115 3.56471 6.47061C3.53612 6.53087 3.50753 6.59114 3.47842 6.65194L3.40847 6.8418C3.36507 6.97032 3.31298 7.09672 3.27622 7.22845C3.24303 7.36178 3.20933 7.49511 3.17563 7.6295L3.15112 7.7303L3.13529 7.83483L3.10363 8.04442L3.07249 8.25508C3.06023 8.32601 3.06329 8.39054 3.05768 8.4588L3.03674 8.87319C3.05104 9.4321 3.12304 9.98995 3.27622 10.5174C3.31349 10.6491 3.36455 10.7761 3.40898 10.904L3.47893 11.0939C3.50804 11.1547 3.53663 11.215 3.56522 11.2758C3.62497 11.3947 3.67552 11.5184 3.74139 11.6315C3.80879 11.744 3.87568 11.8555 3.94206 11.9664C4.22646 12.3947 4.54304 12.7813 4.89741 13.0821C5.06387 13.2458 5.25228 13.3701 5.42538 13.5008C5.46827 13.5344 5.51422 13.5616 5.56018 13.5888C5.60613 13.6159 5.65107 13.6426 5.696 13.6693C5.78638 13.721 5.87216 13.777 5.96101 13.8223C6.05139 13.8645 6.13972 13.9055 6.22652 13.9455C6.31384 13.9839 6.39503 14.0298 6.48234 14.0549C6.56761 14.0837 6.65084 14.1119 6.73203 14.1391C6.81373 14.1642 6.88981 14.1983 6.96895 14.2117C7.12469 14.2463 7.27072 14.2794 7.40552 14.3093C7.54288 14.3285 7.66951 14.3391 7.78286 14.3525C7.83954 14.3583 7.89316 14.3642 7.9432 14.3701C7.99375 14.3722 8.04072 14.3701 8.08463 14.3701C8.17246 14.3695 8.24701 14.369 8.30777 14.3685C8.32769 14.3685 8.34607 14.3685 8.36292 14.3685C8.36394 14.3637 8.36445 14.3583 8.36547 14.353C8.34811 14.3509 8.32973 14.3487 8.30879 14.3466C8.24854 14.3397 8.17399 14.3317 8.08668 14.3215L8.08617 14.3221Z" fill="white"/>
<path id="Vector_20" d="M26.3098 15.0879C26.3098 14.177 25.9565 13.3535 25.3851 12.7562C24.8132 12.1595 24.0248 11.7904 23.1527 11.7904C22.2806 11.7904 21.4922 12.1589 20.9203 12.7562C20.3484 13.3535 19.9956 14.177 19.9956 15.0879C19.9956 15.9993 20.3489 16.8222 20.9203 17.4195C21.4922 18.0168 22.2801 18.3848 23.1527 18.3848C24.0253 18.3848 24.8132 18.0163 25.3851 17.4195C25.9565 16.8222 26.3098 15.9993 26.3098 15.0879ZM23.1527 17.5155C21.8695 17.5155 20.8289 16.4292 20.8289 15.0884C20.8289 13.7477 21.869 12.6618 23.1527 12.6613C24.4364 12.6613 25.4765 13.7482 25.477 15.0884C25.477 16.4292 24.4364 17.5155 23.1527 17.5155Z" fill="#C5BEC0"/>
<path id="Vector_21" d="M11.8473 11.7904C10.9747 11.7904 10.1868 12.1589 9.6149 12.7562C9.04302 13.3535 8.69019 14.177 8.69019 15.0879C8.69019 15.9993 9.04353 16.8222 9.6149 17.4195C10.1868 18.0168 10.9752 18.3848 11.8473 18.3848C12.7194 18.3848 13.5078 18.0163 14.0797 17.4195C14.6511 16.8222 15.0044 15.9993 15.0044 15.0879C15.0044 14.177 14.6511 13.3535 14.0797 12.7562C13.5078 12.1595 12.7199 11.7904 11.8473 11.7904ZM11.8473 17.5155C10.5636 17.5155 9.5235 16.4292 9.52299 15.0884C9.52299 13.7482 10.5636 12.6618 11.8473 12.6613C13.1305 12.6613 14.1711 13.7482 14.1711 15.0884C14.1711 16.4286 13.131 17.5155 11.8473 17.5155Z" fill="#C5BEC0"/>
<path id="Vector_22" d="M11.8473 13.0735C11.3137 13.0735 10.8327 13.2985 10.4834 13.6633C10.1342 14.0287 9.9187 14.5305 9.9187 15.0878C9.9187 15.6451 10.1342 16.147 10.4834 16.5123C10.8332 16.8776 11.3142 17.1021 11.8473 17.1021C12.3804 17.1021 12.8613 16.8771 13.2111 16.5123C13.5604 16.1475 13.7759 15.6451 13.7759 15.0878C13.7759 14.5305 13.5604 14.0287 13.2111 13.6633C12.8613 13.2985 12.3804 13.0735 11.8473 13.0735Z" fill="#4B4949"/>
<path id="Vector_23" d="M13.3689 14.3609C13.4052 14.4495 13.4445 14.5321 13.4654 14.6169C13.4772 14.6585 13.4884 14.6996 13.4996 14.7391C13.5063 14.7791 13.5129 14.8185 13.519 14.8559C13.5344 14.9295 13.5364 14.9993 13.5384 15.0601C13.5395 15.0905 13.5405 15.1188 13.5415 15.1455C13.5395 15.1716 13.5379 15.1956 13.5364 15.2174C13.5293 15.3044 13.5231 15.3529 13.5231 15.3529C13.5231 15.3529 13.5124 15.3038 13.4971 15.2201C13.4935 15.1993 13.4894 15.1759 13.4848 15.1508C13.4782 15.1263 13.471 15.0996 13.4639 15.0708C13.4491 15.0143 13.4343 14.9508 13.4093 14.8836C13.398 14.85 13.3863 14.8153 13.374 14.7791C13.3592 14.7439 13.3439 14.7081 13.3281 14.6713C13.3005 14.5956 13.253 14.5247 13.2168 14.4463C13.1698 14.3737 13.1254 14.2969 13.0697 14.226C13.0197 14.1514 12.9553 14.0863 12.8956 14.018C12.8302 13.9556 12.7679 13.889 12.6959 13.8362C12.6285 13.778 12.5545 13.7316 12.4851 13.6826C12.41 13.6447 12.3426 13.5951 12.2701 13.5663C12.2349 13.5498 12.2001 13.5338 12.1669 13.5183C12.1322 13.5055 12.099 13.4932 12.0669 13.481C12.0025 13.4548 11.9428 13.4394 11.8887 13.4244C11.8616 13.4164 11.8361 13.4095 11.8126 13.4026C11.7881 13.3978 11.7656 13.3935 11.7457 13.3898C11.6645 13.3738 11.618 13.3626 11.618 13.3626C11.618 13.3626 11.665 13.3562 11.7472 13.3493C11.7677 13.3477 11.7906 13.3455 11.8151 13.3434C11.8402 13.3445 11.8677 13.3455 11.8968 13.3466C11.9556 13.3493 12.0235 13.3514 12.0939 13.3668C12.1297 13.3732 12.1675 13.3802 12.2058 13.3871C12.2435 13.3988 12.2823 13.4106 12.3222 13.4228C12.4039 13.4442 12.483 13.4852 12.5678 13.5231C12.6464 13.5716 12.7342 13.6132 12.8098 13.6767C12.8905 13.7332 12.9609 13.8047 13.035 13.8724C13.0998 13.9498 13.1683 14.0234 13.2224 14.1076C13.2837 14.186 13.323 14.2777 13.3694 14.3604L13.3689 14.3609Z" fill="#4B4949"/>
<path id="Vector_24" d="M11.8472 12.6608C10.5636 12.6608 9.52346 13.7477 9.52295 15.0879C9.52295 16.4286 10.5636 17.515 11.8472 17.515C13.1304 17.515 14.171 16.4286 14.171 15.0879C14.171 13.7471 13.1309 12.6613 11.8472 12.6608ZM13.2111 16.5124C12.8613 16.8777 12.3803 17.1022 11.8472 17.1022C11.3142 17.1022 10.8327 16.8771 10.4834 16.5124C10.1341 16.1476 9.91867 15.6452 9.91867 15.0879C9.91867 14.5306 10.1341 14.0287 10.4834 13.6634C10.8332 13.2986 11.3142 13.0736 11.8472 13.0736C12.3803 13.0736 12.8613 13.2986 13.2111 13.6634C13.5603 14.0287 13.7758 14.5306 13.7758 15.0879C13.7758 15.6452 13.5603 16.147 13.2111 16.5124Z" fill="#3C3C3B"/>
<path id="Vector_25" d="M24.5165 13.6633C24.1668 13.2985 23.6858 13.0735 23.1527 13.0735C22.6196 13.0735 22.1386 13.2985 21.7889 13.6633C21.4396 14.0287 21.2241 14.5305 21.2241 15.0878C21.2241 15.6451 21.4396 16.147 21.7889 16.5123C22.1386 16.8776 22.6196 17.1021 23.1527 17.1021C23.6858 17.1021 24.1673 16.8771 24.5165 16.5123C24.8658 16.1475 25.0813 15.6451 25.0813 15.0878C25.0813 14.5305 24.8658 14.0287 24.5165 13.6633Z" fill="#4B4949"/>
<path id="Vector_26" d="M24.7223 15.3534C24.7223 15.3534 24.7116 15.3043 24.6963 15.2206C24.6922 15.1998 24.6886 15.1763 24.684 15.1513C24.6774 15.1267 24.6702 15.1001 24.6631 15.0713C24.6488 15.0147 24.6335 14.9513 24.6085 14.8841C24.5972 14.8505 24.5855 14.8158 24.5732 14.7796C24.5584 14.7444 24.5426 14.7086 24.5273 14.6718C24.4997 14.5961 24.4522 14.5252 24.416 14.4468C24.369 14.3742 24.324 14.2974 24.2689 14.2265C24.2189 14.1518 24.1545 14.0868 24.0948 14.0185C24.0294 13.9561 23.9671 13.8895 23.8956 13.8367C23.8282 13.7785 23.7542 13.7321 23.6848 13.6831C23.6097 13.6452 23.5423 13.5956 23.4698 13.5668C23.4341 13.5503 23.3998 13.5343 23.3661 13.5188C23.3319 13.506 23.2982 13.4937 23.2666 13.4815C23.2022 13.4553 23.142 13.4399 23.0884 13.4249C23.0613 13.4169 23.0358 13.41 23.0123 13.4031C22.9878 13.3983 22.9653 13.394 22.9449 13.3903C22.8637 13.3743 22.8177 13.3631 22.8177 13.3631C22.8177 13.3631 22.8647 13.3567 22.9469 13.3497C22.9674 13.3481 22.9903 13.346 23.0154 13.3439C23.0404 13.3449 23.0679 13.346 23.0971 13.3471C23.1563 13.3497 23.2237 13.3519 23.2941 13.3673C23.3299 13.3737 23.3672 13.3807 23.406 13.3876C23.4438 13.3993 23.4826 13.4111 23.5224 13.4233C23.6041 13.4447 23.6832 13.4857 23.768 13.5236C23.8471 13.5721 23.9345 13.6137 24.01 13.6772C24.0907 13.7337 24.1612 13.8052 24.2352 13.8729C24.3006 13.9503 24.3685 14.0238 24.4226 14.1081C24.4839 14.1865 24.5232 14.2782 24.5697 14.3609C24.6059 14.4494 24.6452 14.5321 24.6656 14.6169C24.6774 14.6585 24.6891 14.6996 24.6999 14.739C24.7065 14.779 24.7131 14.8185 24.7193 14.8558C24.7346 14.9294 24.7361 14.9993 24.7382 15.0601C24.7392 15.0905 24.7402 15.1187 24.7412 15.1454C24.7397 15.1715 24.7376 15.1955 24.7361 15.2174C24.729 15.3043 24.7228 15.3529 24.7228 15.3529L24.7223 15.3534Z" fill="#4B4949"/>
<path id="Vector_27" d="M23.1528 12.6608C21.8696 12.6608 20.829 13.7477 20.829 15.0879C20.829 16.4281 21.8691 17.515 23.1528 17.515C24.4364 17.515 25.4766 16.4286 25.4771 15.0879C25.4771 13.7477 24.4364 12.6613 23.1528 12.6608ZM24.5166 16.5124C24.1668 16.8777 23.6858 17.1022 23.1528 17.1022C22.6197 17.1022 22.1387 16.8771 21.7889 16.5124C21.4397 16.1476 21.2242 15.6452 21.2242 15.0879C21.2242 14.5306 21.4397 14.0287 21.7889 13.6634C22.1387 13.2986 22.6197 13.0736 23.1528 13.0736C23.6864 13.0736 24.1673 13.2986 24.5166 13.6634C24.8659 14.0287 25.0813 14.5306 25.0813 15.0879C25.0813 15.6452 24.8659 16.147 24.5166 16.5124Z" fill="#3C3C3B"/>
<path id="Vector_28" d="M9.64908 7.54834V6.83796C9.64908 6.17079 9.13183 5.63 8.49306 5.63C7.85428 5.63 7.33704 6.17079 7.33704 6.83796V7.54834C7.33704 8.21551 9.64908 8.21551 9.64908 7.54834ZM8.49306 6.34518L8.82751 7.06569H8.1581L8.49306 6.34518Z" fill="#666666"/>
<path id="Vector_29" d="M8.49304 6.34521L8.15808 7.06572H8.82749L8.49304 6.34521Z" fill="white"/>
<path id="Vector_30" d="M7.33655 10.2011V10.9114C7.33655 11.5786 7.8538 12.1194 8.49257 12.1194C9.13134 12.1194 9.64859 11.5786 9.64859 10.9114V10.2011C9.64859 9.53389 7.33655 9.53389 7.33655 10.2011ZM8.49308 11.4032L8.15812 10.6826H8.82753L8.49308 11.4032Z" fill="#666666"/>
<path id="Vector_31" d="M8.49304 11.4032L8.82749 10.6832H8.15808L8.49304 11.4032Z" fill="white"/>
<path id="Vector_32" d="M10.4426 7.66675H9.76251C9.12425 7.66675 9.12425 10.0816 9.76251 10.0816H10.4426C11.0814 10.0816 11.5992 9.54135 11.5992 8.87417C11.5992 8.207 11.0814 7.66675 10.4426 7.66675ZM10.2251 9.22402V8.52485L10.9144 8.87417L10.2251 9.22349V9.22402Z" fill="#666666"/>
<path id="Vector_33" d="M10.2251 9.22408L10.9144 8.87422L10.2251 8.5249V9.22408Z" fill="white"/>
<path id="Vector_34" d="M7.22324 7.66675H6.54311C5.90484 7.66675 5.38708 8.207 5.38708 8.87417C5.38708 9.54135 5.90484 10.0816 6.54311 10.0816H7.22324C7.8615 10.0816 7.8615 7.66675 7.22324 7.66675ZM6.76114 9.22402L6.07181 8.8747L6.76114 8.52538V9.22456V9.22402Z" fill="#666666"/>
<path id="Vector_35" d="M6.7611 9.22408V8.5249L6.07178 8.87422L6.7611 9.22408Z" fill="white"/>
<path id="Vector_36" d="M26.507 7.86303C26.774 7.86303 27.015 7.7505 27.1902 7.56758C27.3653 7.38465 27.473 7.13292 27.473 6.854C27.473 6.57508 27.3653 6.32335 27.1902 6.14043C27.015 5.9575 26.774 5.84497 26.507 5.84497C26.2399 5.84497 25.9989 5.9575 25.8238 6.14043C25.6486 6.32335 25.5409 6.57508 25.5409 6.854C25.5409 7.13292 25.6486 7.38465 25.8238 7.56758C25.9989 7.7505 26.2399 7.86303 26.507 7.86303Z" fill="white"/>
<path id="Vector_37" d="M26.5069 8.06944C27.1498 8.06944 27.6706 7.52546 27.6706 6.85348C27.6706 6.18151 27.1498 5.63806 26.5069 5.63806C25.8641 5.63806 25.3433 6.18258 25.3433 6.85348C25.3433 7.52439 25.8641 8.06944 26.5069 8.06944ZM25.8237 6.13991C25.9989 5.95698 26.2399 5.84445 26.5069 5.84445C26.774 5.84445 27.015 5.95698 27.1901 6.13991C27.3653 6.32284 27.473 6.57456 27.473 6.85348C27.473 7.13241 27.3653 7.38413 27.1901 7.56706C27.015 7.74998 26.774 7.86251 26.5069 7.86251C26.2399 7.86251 25.9989 7.74998 25.8237 7.56706C25.6486 7.38413 25.5409 7.13241 25.5409 6.85348C25.5409 6.57456 25.6486 6.32284 25.8237 6.13991Z" fill="#B3B3B3"/>
<path id="Vector_38" d="M26.507 9.88647C26.2399 9.88647 25.9989 9.999 25.8238 10.1819C25.6486 10.3649 25.5409 10.6166 25.5409 10.8955C25.5409 11.1744 25.6486 11.4262 25.8238 11.6091C25.9989 11.7915 26.2399 11.9045 26.507 11.9045C26.774 11.9045 27.015 11.7915 27.1902 11.6091C27.3653 11.4262 27.473 11.1739 27.473 10.8955C27.473 10.6171 27.3653 10.3649 27.1902 10.1819C27.015 9.999 26.774 9.88647 26.507 9.88647Z" fill="white"/>
<path id="Vector_39" d="M26.5069 9.68005C25.8641 9.68005 25.3433 10.224 25.3433 10.8955C25.3433 11.5669 25.8641 12.1109 26.5069 12.1109C27.1498 12.1109 27.6706 11.5664 27.6706 10.8955C27.6706 10.2246 27.1498 9.68005 26.5069 9.68005ZM27.1901 11.6091C27.015 11.7914 26.774 11.9045 26.5069 11.9045C26.2399 11.9045 25.9989 11.7914 25.8237 11.6091C25.6486 11.4261 25.5409 11.1739 25.5409 10.8955C25.5409 10.6171 25.6486 10.3648 25.8237 10.1819C25.9989 9.99898 26.2399 9.88645 26.5069 9.88645C26.774 9.88645 27.015 9.99898 27.1901 10.1819C27.3653 10.3648 27.473 10.6166 27.473 10.8955C27.473 11.1744 27.3653 11.4261 27.1901 11.6091Z" fill="#B3B3B3"/>
<path id="Vector_40" d="M27.7585 9.58784C27.9336 9.77077 28.1746 9.88329 28.4417 9.88329C28.7092 9.88329 28.9497 9.77077 29.1249 9.58784C29.3 9.40491 29.4077 9.15319 29.4077 8.87426C29.4077 8.59481 29.3 8.34362 29.1249 8.16069C28.9497 7.97776 28.7087 7.86523 28.4417 7.86523C28.1746 7.86523 27.9336 7.97776 27.7585 8.16069C27.5833 8.34362 27.4756 8.59534 27.4756 8.87426C27.4756 9.15319 27.5838 9.40491 27.7585 9.58784Z" fill="white"/>
<path id="Vector_41" d="M27.278 8.87416C27.278 9.5456 27.7988 10.0896 28.4416 10.0901C29.0845 10.0901 29.6053 9.54614 29.6053 8.87416C29.6053 8.20218 29.0845 7.6582 28.4416 7.6582C27.7988 7.6582 27.278 8.20218 27.278 8.87416ZM28.4416 7.86513C28.7092 7.86513 28.9497 7.97766 29.1248 8.16059C29.3 8.34351 29.4077 8.59524 29.4077 8.87416C29.4077 9.15308 29.3 9.40481 29.1248 9.58773C28.9497 9.77066 28.7087 9.88319 28.4416 9.88319C28.1746 9.88319 27.9336 9.77066 27.7584 9.58773C27.5833 9.40481 27.4756 9.15308 27.4756 8.87416C27.4756 8.5947 27.5838 8.34351 27.7584 8.16059C27.9336 7.97766 28.1746 7.86513 28.4416 7.86513Z" fill="#B3B3B3"/>
<path id="Vector_42" d="M24.5722 9.88378C24.8392 9.88378 25.0802 9.77125 25.2554 9.58833C25.43 9.4054 25.5382 9.15368 25.5382 8.87475C25.5382 8.59583 25.43 8.34411 25.2554 8.16118C25.0802 7.97825 24.8392 7.86572 24.5722 7.86572C24.3051 7.86572 24.0641 7.97825 23.889 8.16118C23.7138 8.34411 23.6061 8.59583 23.6061 8.87475C23.6061 9.15368 23.7138 9.4054 23.889 9.58833C24.0641 9.77125 24.3051 9.88378 24.5722 9.88378Z" fill="white"/>
<path id="Vector_43" d="M24.5723 10.0901C25.2151 10.0901 25.7359 9.54614 25.7364 8.87416C25.7364 8.20272 25.2151 7.6582 24.5723 7.6582C23.9294 7.6582 23.4086 8.20218 23.4086 8.87416C23.4086 9.5456 23.9299 10.0896 24.5723 10.0901ZM23.8891 8.16059C24.0642 7.97766 24.3052 7.86513 24.5723 7.86513C24.8393 7.86513 25.0803 7.97766 25.2554 8.16059C25.4301 8.34351 25.5383 8.59524 25.5383 8.87416C25.5383 9.15308 25.4301 9.40481 25.2554 9.58773C25.0803 9.77066 24.8393 9.88319 24.5723 9.88319C24.3052 9.88319 24.0642 9.77066 23.8891 9.58773C23.7139 9.40481 23.6062 9.15308 23.6062 8.87416C23.6062 8.59524 23.7139 8.34351 23.8891 8.16059Z" fill="#B3B3B3"/>
<path id="Vector_44" d="M16.837 10.4491H15.1857V11.3696H16.837V10.4491Z" fill="white"/>
<path id="Vector_45" d="M19.8144 10.4491H18.1631V11.3696H19.8144V10.4491Z" fill="white"/>
<path id="Vector_46" d="M1.99868 16.8467C1.92464 17.0782 1.85163 17.3241 1.78474 17.5811C1.71989 17.8387 1.653 18.1054 1.60194 18.3806C1.57641 18.5182 1.54986 18.6568 1.52892 18.7976C1.50543 18.9373 1.48603 19.0787 1.46867 19.2205C1.43497 19.5043 1.41761 19.7901 1.40688 20.0717C1.40025 20.3544 1.41046 20.6327 1.43548 20.901C1.45029 21.0354 1.45948 21.1677 1.48603 21.2957C1.49726 21.3597 1.5085 21.4231 1.51922 21.4855C1.53403 21.5474 1.54832 21.6082 1.56313 21.669C1.57845 21.7287 1.5907 21.7884 1.60755 21.846C1.62645 21.9031 1.64432 21.9596 1.66219 22.0151C1.69589 22.1266 1.74082 22.2295 1.78371 22.3281C1.80567 22.3772 1.82354 22.4268 1.84805 22.4721C1.87256 22.5175 1.89656 22.5612 1.92005 22.6039C1.94354 22.6465 1.96651 22.6881 1.98898 22.7281C2.01502 22.7665 2.04055 22.8033 2.06506 22.8391C2.11663 22.9084 2.15544 22.9799 2.20752 23.0332C2.25654 23.0887 2.30147 23.1393 2.34232 23.1852C2.38062 23.2326 2.42351 23.2673 2.45925 23.2982C2.49448 23.3292 2.52512 23.3548 2.54963 23.3766C2.59865 23.4188 2.62418 23.4417 2.62418 23.4417C2.62418 23.4417 2.60222 23.4145 2.56035 23.3644C2.53993 23.3393 2.5144 23.3084 2.48478 23.2726C2.45568 23.2359 2.41891 23.1975 2.38726 23.1452C2.35356 23.0956 2.31679 23.0401 2.27645 22.9799C2.23407 22.9212 2.20242 22.8481 2.16157 22.7761C2.14216 22.7393 2.12174 22.702 2.1008 22.6631C2.08344 22.622 2.06608 22.5799 2.0477 22.5361C2.02932 22.4935 2.01043 22.4492 1.99102 22.4044C1.97162 22.3596 1.95885 22.3105 1.942 22.262C1.90932 22.1644 1.87511 22.0636 1.85214 21.9548C1.83835 21.901 1.82507 21.8466 1.81129 21.7911C1.79903 21.7351 1.79035 21.6775 1.77963 21.6194C1.76942 21.5612 1.75921 21.5026 1.74899 21.4428C1.74236 21.3826 1.73521 21.3213 1.72857 21.2599C1.71223 21.1373 1.70457 21.0103 1.6964 20.8813C1.68466 20.7533 1.68976 20.6205 1.68568 20.4877C1.6867 20.3549 1.6918 20.2194 1.69385 20.0834C1.70763 19.8114 1.72806 19.5352 1.7638 19.2595C1.77861 19.1219 1.79597 18.9837 1.8169 18.8467C1.83529 18.7096 1.8598 18.5736 1.88277 18.4387C1.90575 18.3038 1.93383 18.1704 1.95681 18.0382C1.98387 17.9064 2.01094 17.7763 2.03749 17.6483C2.09621 17.3934 2.15033 17.1465 2.21007 16.9139C2.26879 16.6809 2.327 16.4617 2.38215 16.259C2.49397 15.8543 2.59405 15.5188 2.66605 15.2836C2.73804 15.0484 2.78145 14.9146 2.78145 14.9146C2.78145 14.9146 2.5144 15.4089 2.22131 16.2025C2.14829 16.4009 2.07017 16.6164 1.99868 16.8483V16.8467Z" fill="white"/>
<path id="Vector_47" d="M33.15 19.2205C33.1331 19.0787 33.1137 18.9374 33.0903 18.7976C33.0698 18.6568 33.0428 18.5187 33.0177 18.3806C32.9667 18.1054 32.8998 17.8387 32.8349 17.5811C32.7686 17.3241 32.6955 17.0782 32.6215 16.8468C32.55 16.6148 32.4719 16.3993 32.3989 16.2009C32.1058 15.4073 31.8387 14.913 31.8387 14.913C31.8387 14.913 31.8827 15.0468 31.9541 15.282C32.0261 15.5167 32.1262 15.8527 32.238 16.2574C32.2932 16.4601 32.3514 16.6798 32.4101 16.9124C32.4699 17.1449 32.524 17.3918 32.5827 17.6467C32.6093 17.7747 32.6363 17.9049 32.6634 18.0366C32.6864 18.1688 32.7144 18.3016 32.7374 18.4371C32.7609 18.572 32.7854 18.708 32.8038 18.8451C32.8252 18.9821 32.8421 19.1197 32.8569 19.2579C32.8926 19.5336 32.9131 19.8099 32.9269 20.0818C32.9289 20.2178 32.934 20.3533 32.935 20.4861C32.9304 20.6189 32.9355 20.7517 32.9243 20.8797C32.9161 21.0087 32.9085 21.1357 32.8921 21.2583C32.885 21.3202 32.8783 21.381 32.8717 21.4413C32.8615 21.501 32.8513 21.5597 32.8411 21.6178C32.8304 21.6759 32.8217 21.7335 32.8094 21.7895C32.7956 21.845 32.7818 21.8994 32.7686 21.9532C32.7461 22.0626 32.7114 22.1634 32.6787 22.2604C32.6618 22.309 32.6491 22.358 32.6297 22.4028C32.6103 22.4482 32.5914 22.4919 32.573 22.5346C32.5551 22.5783 32.5373 22.6204 32.5199 22.6615C32.499 22.7004 32.4791 22.7383 32.4591 22.7745C32.4178 22.8465 32.3861 22.9196 32.3443 22.9783C32.3039 23.0385 32.2666 23.0935 32.2334 23.1436C32.2018 23.1959 32.165 23.2348 32.1359 23.2711C32.1063 23.3073 32.0808 23.3383 32.0598 23.3628C32.0185 23.4129 31.996 23.4401 31.996 23.4401C31.996 23.4401 32.0221 23.4172 32.0706 23.3751C32.0951 23.3537 32.1252 23.3276 32.1609 23.2967C32.1967 23.2657 32.2391 23.2311 32.2779 23.1836C32.3187 23.1377 32.3637 23.0871 32.4127 23.0316C32.4648 22.9783 32.5036 22.9068 32.5551 22.8375C32.5796 22.8017 32.6047 22.7649 32.6307 22.7265C32.6532 22.6865 32.6761 22.6455 32.6996 22.6023C32.7231 22.5596 32.7471 22.5154 32.7716 22.4706C32.7961 22.4252 32.814 22.3756 32.836 22.3266C32.8789 22.2279 32.9243 22.125 32.9575 22.0135C32.9754 21.958 32.9937 21.902 33.0121 21.8444C33.029 21.7868 33.0417 21.7271 33.0565 21.6674C33.0708 21.6071 33.0851 21.5458 33.1 21.4839C33.1107 21.4215 33.1219 21.3586 33.1331 21.2941C33.1597 21.1661 33.1689 21.0343 33.1837 20.8994C33.2087 20.6312 33.2189 20.3528 33.2123 20.0701C33.2016 19.7885 33.1842 19.5021 33.1505 19.2189L33.15 19.2205Z" fill="white"/>
<path id="Vector_48" d="M12.8098 13.6778C12.7342 13.6143 12.6469 13.5727 12.5678 13.5242C12.4835 13.4863 12.4039 13.4453 12.3222 13.4239C12.2823 13.4117 12.2435 13.3999 12.2058 13.3882C12.1675 13.3813 12.1297 13.3743 12.0939 13.3679C12.0235 13.3519 11.9561 13.3498 11.8968 13.3477C11.8677 13.3466 11.8402 13.3455 11.8151 13.3445C11.7906 13.3461 11.7677 13.3482 11.7472 13.3503C11.665 13.3578 11.618 13.3637 11.618 13.3637C11.618 13.3637 11.6645 13.3749 11.7457 13.3909C11.7661 13.3951 11.7881 13.3994 11.8126 13.4037C11.8361 13.4106 11.8616 13.4181 11.8887 13.4255C11.9428 13.4405 12.0025 13.4565 12.0669 13.4821C12.099 13.4938 12.1322 13.5066 12.1669 13.5194C12.2001 13.5349 12.2349 13.5509 12.2701 13.5674C12.3421 13.5962 12.41 13.6458 12.4851 13.6837C12.5545 13.7327 12.6285 13.7791 12.6959 13.8373C12.7679 13.8901 12.8297 13.9567 12.8956 14.0191C12.9553 14.0874 13.0192 14.1525 13.0697 14.2271C13.1254 14.298 13.1698 14.3748 13.2168 14.4474C13.253 14.5258 13.3005 14.5967 13.3281 14.6724C13.3439 14.7092 13.3592 14.745 13.374 14.7802C13.3863 14.8164 13.398 14.8511 13.4093 14.8847C13.4338 14.9514 13.4491 15.0154 13.4639 15.0719C13.4716 15.1007 13.4782 15.1268 13.4848 15.1519C13.4894 15.1769 13.4935 15.2004 13.4971 15.2212C13.5124 15.3049 13.5231 15.354 13.5231 15.354C13.5231 15.354 13.5293 15.3055 13.5364 15.2185C13.5379 15.1967 13.54 15.1721 13.5415 15.1465C13.5405 15.1199 13.5395 15.0916 13.5384 15.0612C13.5364 15.0004 13.5344 14.9306 13.519 14.857C13.5129 14.8191 13.5063 14.7802 13.4996 14.7402C13.4884 14.7007 13.4772 14.6602 13.4654 14.618C13.445 14.5327 13.4052 14.45 13.3689 14.362C13.3225 14.2799 13.2831 14.1882 13.2219 14.1093C13.1677 14.025 13.0998 13.9514 13.0345 13.8741C12.9604 13.8063 12.89 13.7349 12.8093 13.6783L12.8098 13.6778Z" fill="white"/>
<path id="Vector_49" d="M24.7382 15.0601C24.7361 14.9993 24.7341 14.9294 24.7193 14.8558C24.7131 14.818 24.7065 14.779 24.6999 14.739C24.6886 14.6996 24.6774 14.659 24.6656 14.6169C24.6452 14.5316 24.6054 14.4489 24.5697 14.3609C24.5232 14.2788 24.4839 14.187 24.4226 14.1081C24.3685 14.0238 24.3006 13.9503 24.2352 13.8729C24.1617 13.8052 24.0907 13.7337 24.01 13.6772C23.9345 13.6137 23.8471 13.5721 23.768 13.5236C23.6837 13.4857 23.6041 13.4447 23.5224 13.4233C23.4826 13.4111 23.4438 13.3993 23.406 13.3876C23.3672 13.3807 23.3299 13.3737 23.2941 13.3673C23.2237 13.3513 23.1563 13.3492 23.0971 13.3471C23.0679 13.346 23.0409 13.3449 23.0154 13.3439C22.9903 13.3455 22.9679 13.3476 22.9469 13.3497C22.8647 13.3572 22.8177 13.3631 22.8177 13.3631C22.8177 13.3631 22.8637 13.3743 22.9449 13.3903C22.9648 13.3945 22.9878 13.3988 23.0123 13.4031C23.0358 13.41 23.0613 13.4175 23.0884 13.4249C23.142 13.4399 23.2022 13.4559 23.2666 13.4815C23.2982 13.4932 23.3319 13.506 23.3661 13.5188C23.3993 13.5343 23.4341 13.5503 23.4698 13.5668C23.5423 13.5956 23.6097 13.6452 23.6848 13.6831C23.7542 13.7321 23.8282 13.7785 23.8956 13.8367C23.9676 13.8895 24.0294 13.9561 24.0948 14.0185C24.1545 14.0868 24.2184 14.1518 24.2689 14.2265C24.3246 14.2974 24.369 14.3742 24.416 14.4468C24.4522 14.5252 24.4997 14.5961 24.5273 14.6718C24.5431 14.7086 24.5584 14.7444 24.5732 14.7796C24.5855 14.8158 24.5972 14.8505 24.6085 14.8841C24.6335 14.9507 24.6483 15.0147 24.6631 15.0713C24.6708 15.1001 24.6774 15.1262 24.684 15.1513C24.6886 15.1763 24.6927 15.1998 24.6963 15.2206C24.7116 15.3043 24.7223 15.3534 24.7223 15.3534C24.7223 15.3534 24.7285 15.3049 24.7356 15.2179C24.7371 15.1961 24.7392 15.1715 24.7407 15.1459C24.7397 15.1193 24.7387 15.091 24.7376 15.0606L24.7382 15.0601Z" fill="white"/>
</g>
</g>
<defs>
<clipPath id="clip0_23_4753">
<rect width="34" height="25.9474" fill="white" transform="translate(0.5 0.526367)"/>
</clipPath>
</defs>
</svg>
