<svg width="247" height="135" viewBox="0 0 247 135" fill="none" xmlns="http://www.w3.org/2000/svg">
<g id="Group 22561">
<path id="Union" fill-rule="evenodd" clip-rule="evenodd" d="M78.0993 26.595C76.2096 25.4508 73.5597 25.9223 72.1807 27.6482L53.0885 51.542L32.4399 29.6249C30.925 28.017 28.2394 27.754 26.4414 29.0376L1.82815 46.6089C0.0301657 47.8925 -0.19934 50.2365 1.31553 51.8444L29.1984 81.4403L5.46547 111.142C4.08644 112.868 4.50045 115.195 6.39019 116.339L32.5918 132.203C34.4815 133.347 37.1314 132.876 38.5104 131.15L55.7291 109.601L76.6589 131.816C78.1737 133.424 80.8593 133.687 82.6573 132.404L107.271 114.832C109.069 113.549 109.298 111.205 107.783 109.597L79.6191 79.7026L105.226 47.6561C106.605 45.9303 106.191 43.6036 104.301 42.4594L78.0993 26.595Z" fill="#EF8DD1"/>
<path id="Exclude" fill-rule="evenodd" clip-rule="evenodd" d="M177.961 135C215.576 135 246.069 104.779 246.069 67.4999C246.069 30.2208 215.576 0 177.961 0C140.346 0 109.853 30.2208 109.853 67.4999C109.853 104.779 140.346 135 177.961 135ZM178.759 98C195.051 98 208.259 84.7924 208.259 68.5C208.259 52.2076 195.051 39 178.759 39C162.466 39 149.259 52.2076 149.259 68.5C149.259 84.7924 162.466 98 178.759 98Z" fill="#D5C1F6"/>
</g>
</svg>
